<?xml version="1.0" encoding="utf-8"?>
<!-- Generator: Adobe Illustrator 15.1.0, SVG Export Plug-In . SVG Version: 6.00 Build 0)  -->
<!DOCTYPE svg PUBLIC "-//W3C//DTD SVG 1.1//EN" "http://www.w3.org/Graphics/SVG/1.1/DTD/svg11.dtd">
<svg version="1.1" id="Layer_1" xmlns="http://www.w3.org/2000/svg" xmlns:xlink="http://www.w3.org/1999/xlink"
	 viewBox="0 0 115.607 117.879" enable-background="new 0 0 115.607 117.879"
	 xml:space="preserve" preserveAspectRatio="xMinYMin meet">
<g>
	<path fill="#FFFFFF" d="M111.725,14.416c-1.289-6.984-6.65-10.146-13.303-10.759c-8.744-0.805-17.951-0.291-26.744-0.368
		C51.335,3.11,30.993,3.689,10.65,3.707C6.02,3.711,4.162,8.01,5.074,11.461c-1.345,0.923-2.189,2.499-1.924,4.746
		c0.514,4.333,0.842,8.669,1.041,13.008c-1.559,5.971-0.712,12.998,0.151,19.122c-0.192,8.122-0.632,16.247-1.04,24.368
		c-0.473,9.449-0.789,18.893-0.629,28.354c0.096,5.661,2.113,10.718,7.604,12.947c5.229,2.124,12.128,1.945,17.66,2.316
		c8.994,0.604,18.049,0.848,27.059,1.058c15.312,0.356,30.93,0.378,46.018-2.604c1.633,0.668,3.527,0.646,5.165-0.389
		c1.163-0.734,2.203-1.505,3.214-2.438c3.22-2.972,1.771-7.456-1.337-9.33c-0.405-5.271,0.593-10.781,1.31-15.887
		c1.152-8.188,1.661-16.347,1.949-24.61c0.335-9.649,0.333-19.308,0.336-28.961C111.652,26.938,112.866,20.598,111.725,14.416z"/>
	<path fill="#CFA867" d="M115.607,95.154c0-5.279-0.373-10.337-0.373-15.691l-0.248-4.455c0-2.104,0-4.207,0-6.313
		c0-2.574-0.373-4.845-0.488-7.302c-0.096-2.016,0.314-3.763,0.494-5.819c0.211-2.368,0.1-4.943-0.006-7.329
		c-0.107-2.388-0.982-4.417-1.113-6.785c-0.064-1.197,0.256-2.062,0.369-3.122c0.135-1.224,0.051-2.576,0-3.803
		c-0.045-1.096-0.496-2.043-0.254-3.102c0.234-1.04,0.627-1.677,0.627-2.965c0-1.013,0.035-2.006-0.219-2.907
		c-0.279-0.993-0.162-1.524-0.154-2.786l-0.102-2.521c0,0-0.168-1.332-0.168-1.998c0-0.667-0.164-2.994-0.164-3.496
		c0-0.5,0.682-3.745,0.682-3.745c-0.295-3.288,0.238-9.372-4.33-9.777c-1.232-0.108-2.227,0.79-3.471,0.742
		c-1.199-0.042-2.299-0.633-3.488-0.742c-5.078-0.465-10.227-0.291-15.328-0.622c-15.938-1.042-31.991-0.37-47.947-0.37
		C37.199,0.246,34.505,0,31.783,0c-1.19,0-2.199,0.287-3.311,0.244c-3.247-0.126-6.828,0.263-10.297,0.101
		c-3.178-0.151-6.15-0.021-9.018,0.802c-1.16,0.335-2.144,0.333-3.217,0.987c-1.057,0.643-1.89,1.788-3.096,2.198L2.229,5.321
		c-0.956,2.031-0.748,5.189-1.115,7.517C0.6,16.1,0.769,19.569,0.615,22.863C0.35,28.62,0.189,34.226,0.523,39.978
		c0.512,8.83-0.4,17.554-0.4,26.366L0,68.818c-0.002,3.284,0.371,7.957,0.371,11.262c0,4.022,0.055,8.004,0.244,12.014
		c0.123,2.572,0.404,4.568,0.375,7.049c-0.029,2.607-0.027,4.309-0.123,6.809c-0.045,1.146-0.292,3.127,0.123,4.181
		c0.418,1.06,1.048,1.774,1.265,2.87c0.256,1.293,0.649,1.654,1.83,2.137c1.352,0.555,2.866,1.049,4.308,1.4
		c3.189,0.781,6.878,0.404,10.188,0.43c3.019,0.021,6.023,0.396,9.021,0.623c4.552,0.346,9.13,0.264,13.701,0.109
		c4.636-0.152,9.26-0.238,13.908-0.238c3.617,0,7.2,0.416,10.815,0.369c3.047-0.039,6.13-0.1,9.169-0.396
		c2.118-0.213,4.263-0.023,6.38-0.215c1.658-0.148,2.482-0.09,4.182,0.303c1.164,0.27,2.338,0.078,3.582-0.059
		c3.281-0.354,6.211-0.332,9.568,0.119c3.398,0.453,7.549,0.393,10.883-0.242c2.057-0.393,4.025-0.984,4.605-3.223
		c0.553-2.126,0.602-4.83,0.592-7.059C114.967,103.072,115.607,99.178,115.607,95.154z M110.398,57.835
		c-0.168,3.501-0.537,7.217-0.236,10.728c0.119,1.421,0.488,2.732,0.492,4.188c0.004,1.264-0.146,2.477-0.248,3.735
		c-0.127,1.611-0.303,3.232-0.375,4.844c-0.082,1.764,0.379,3.434,0.375,5.188c-0.002,1.771,0.055,3.547,0,5.315
		c-0.062,2.06-0.234,3.828-0.402,5.794c-0.277,3.213,0.533,6.212,0.525,9.32c-0.002,1.102,0.135,2.471-0.383,3.332
		c-0.668,1.102-3.355,0.66-4.803,0.594c-5.084-0.231-10.248,0.187-15.295-0.371c-2.252-0.252-4.408,0.186-6.643,0.283
		c-2.219,0.092-4.471-0.006-6.694-0.006c-4.41,0-8.678,0.767-13.073,0.96c-1.882,0.085-3.462,0.991-5.44,1.019
		c-1.589,0.021-3.127-0.383-4.757-0.371c-3.034,0.022-5.956-0.111-8.993-0.254c-0.811-0.037-1.679,0.109-2.462-0.136
		c-0.41-0.128-0.891-0.603-1.48-0.705c-1.42-0.246-3.07-0.02-4.505-0.02c-2.796,0-5.622-0.075-8.4,0.12
		c-2.634,0.184-5.038-0.122-7.667-0.12c-4.359,0.006-8.701,0.562-13.107,0.354c-0.773-1.523-0.389-4.382-0.391-6.172
		c-0.002-2.447,0.14-4.945,0.249-7.428c0.142-3.286,0.513-6.59,0.62-9.902c0.082-2.527-0.386-5.049-0.497-7.566
		c-0.122-2.73,0.012-5.373-0.507-8.185c-0.596-3.236-0.557-6.873-0.648-10.122l-0.081-2.221c-0.478-7.618-0.255-14.853,0-21.783
		c0.081-2.271,0.004-4.225-0.126-6.562c-0.128-2.347-0.372-4.649-0.372-7.083c0-3.354-0.013-6.785,0.498-9.874
		C5.85,13.034,6.347,9.847,5.693,8.17L5.445,6.683c1.208,0,2.251,0.054,3.178-0.436C9.16,5.962,9.179,5.708,9.771,5.569
		c0.578-0.138,1.395,0,1.986,0c1.908,0,3.793-0.126,5.697-0.124c0.715,0,1.529,0.133,2.224,0c0.574-0.11,0.801-0.562,1.266-0.691
		c1.435-0.399,1.556,0.71,2.571,1.164c1.602,0.719,4.323-0.083,5.971-0.342C31.303,5.287,33,5.294,34.879,5.197
		c0.551-0.027,1.256,0.054,1.768-0.116c0.472-0.159,0.883-0.71,1.35-0.751c0.524-0.047,1.084,0.246,1.617,0.366
		c1.486,0.331,3.146,0.097,4.682,0.256c4.028,0.406,8.142-0.184,12.205-0.006c1.837,0.085,3.407,0.515,5.257,0.5
		c3.682-0.033,7.354-0.248,11.055-0.248c1.921,0,3.815,0.188,5.649,0.248c1.004,0.031,1.559-0.501,2.375-0.734
		c1.01-0.292,2.367-0.424,3.42-0.409c1.41,0.025,3.002-0.13,4.594-0.343c0.842-0.112,1.1,0.099,1.656,0.219
		c0.896,0.2,1.762,0.208,2.805,0.271c1.699,0.105,3.779,1.197,5.467,0.748c0.881-0.234,1.141-0.703,2.24-0.627
		c1.467,0.101,2.822,0.385,4.355,0.382c0.936-0.006,1.699,0.015,2.537,0.391c0.092,1.476,0.133,2.331,0.639,3.65
		c0.477,1.235,1.127,2.792,1.244,3.987c0.367,3.691-0.129,7.565-0.129,11.279l0.125,1.735c-0.111,0.953,0.072,2.326,0.357,3.218
		c0.348,1.094,0.566,2.031,0.631,3.329c0.127,2.529-0.494,4.717-0.494,7.31C110.283,45.874,110.691,51.896,110.398,57.835z"/>
	<g>
		<g>
			<g>
				<path fill="#87182D" d="M71.606,90.066c1.327,0.187,3.142,0.275,4.402,0.289c1.174,0.01,2.802,0.273,3.728-0.465
					c1.037-0.83,1.322-2.463,0.223-3.346c-0.947-0.762-2.44-0.52-3.672-0.52c-3.511,0-6.931-0.298-10.45-0.298
					c-1.406,0-2.729,0.209-4.142,0.223c-0.771,0.008-1.532,0.026-2.259,0.151c-0.971,0.166-2.066,0.795-1.531,2.463
					c0.503,1.564,1.824,1.342,3.466,1.342c1.904,0,3.843-0.086,5.74,0.01c0.062,1.216-0.328,2.545,0.29,3.611
					c0.586,1.005,1.903,1.773,2.037,2.947c0.179,1.596-0.574,2.459-1.438,3.57c-0.888,1.143-1.545,1.97-2.742,2.719
					c-0.646,0.403-1.125,0.959-1.775,1.31c-0.551,0.294-1.066,0.519-1.508,0.908c-1.199,1.062-0.357,2.284,0.952,2.614
					c1.45,0.361,2.385,0.133,3.433-0.748c0.902-0.759,1.742-1.73,2.781-2.256c1.311-0.664,1.836-1.186,2.644-2.354
					c0.626-0.904,1.124-2.21,1.548-3.208c0.361-0.851,0.398-2.635,0.007-3.558c-0.274-0.647-0.659-0.97-1.142-1.438
					c-0.322-0.311-1.014-0.75-1.182-1.137c-0.299-0.701,0.137-2.09,0.139-2.848L71.606,90.066z"/>
				<path fill="#87182D" d="M67.085,63.408c0.309-1.113,0.164-4.239,0.372-6.419c0.155-1.578,0.265-2.202,1.868-2.314
					c0.637-0.042,1.127-0.126,1.438,0.709c0.328,0.885,0.45,2.854,0.466,3.433c0.042,1.572-0.448,3.208-0.263,4.926
					c0.835,0.178,2.1,0.255,2.837,0.447c0.64,0.168,1.478,0.068,1.799-0.02c0.147-0.035,0.151-0.408,0.181-0.687
					c0.139-1.406-0.422-3.869,0.447-4.965c0.83-1.047,2.175-0.465,2.837,0.449c0.352,0.488,0.334,1.193,0.334,1.53
					c0,1.604,0.223,4.105-0.809,5.238c-1.244,1.361-2.907,1.861-4.678,2.039c-0.525,0.054-2.216,0.184-2.797,0.225
					c-0.407,0.029-0.353,0.974-0.126,0.993c0.321,0.027,1.316,0.147,1.543,0.163c3.348,0.24,6.718,0.076,7.464,2.688
					c0.504,1.76,0.443,5.897-0.373,7.275c-0.857,1.454-1.442,2.502-2.424,3.919c-0.53,0.766-1.073,0.947-2.315,0.896
					c-1.023-0.04-2.697-0.259-3.657-0.259c-2.063,0-4.115-0.118-6.156-0.337c-2.157-0.232-3.121-1.193-4.339-2.969
					c-1.111-1.623-1.32-3.15-1.318-5.186c0.004-1.94,0-4.062,1.646-5.341c1.53-1.189,3.705-0.742,5.557-0.836
					c0.157,0.023,0.188-0.596-0.054-0.765c-0.157-0.109-0.519-0.105-0.935-0.132c-1.315-0.085-3.352-0.812-3.916-1.15
					c-0.485-0.291-1.439-0.864-1.962-1.758c-0.827-1.423-1.132-3.453-1.044-4.947c0.063-1.104,0.359-2.173,1.659-2.332
					c2.352-0.283,1.556,3.028,2.039,4.341c0.633,1.726,3.042,1.704,4.679,1.704V63.408z M62.905,78.038
					c0.189,0.211,0.189,0.552,0.418,0.784c0.211,0.217,0.516,0.465,0.777,0.596c0.6,0.301,1.295,0.606,1.939,0.638
					c2.098,0.097,4.209,0,6.312-0.002c0.539,0,1.049-0.044,1.566-0.112c0.239-0.031,0.646-0.053,0.883-0.166
					c0.37-0.175,0.902-1.067,0.938-1.434c-0.727-0.035-1.363-0.101-2.076-0.156c-1.302-0.104-2.623,0.115-3.933-0.004
					c-2.251-0.207-4.529-0.297-6.787-0.405L62.905,78.038z M62.851,74.479c0.367,0.072,0.822,0.049,1.206,0.053
					c0.747,0.004,1.49,0.073,2.237,0.073c1.529-0.002,3.074,0.058,4.6-0.008c1.854-0.083,3.766-0.184,5.592-0.223
					c0.07-0.469-1.101-1.069-1.413-1.328c-0.586-0.477-1.396-0.707-2.154-0.792c-0.946-0.104-1.858-0.124-2.81-0.204
					c-1.195-0.104-2.49,0.041-3.695,0.052c-1.092,0.014-3.209,0.151-3.414,0.562c-0.336,0.668-0.445,1.119-0.451,1.789
					L62.851,74.479z"/>
				<path fill="#87182D" d="M90.377,57.826c-0.023-1.569,2.707-1.59,3.652-1.222c1.906,0.746-0.52,4.301,1.736,5.354
					c0.455,0.213,1.055,0.217,1.543,0.323c0.645,0.139,1.156,0.37,1.734,0.562c1.121,0.368,2.236,0.736,3.279,1.222
					c0.963,0.447,2.176,0.597,2.975,1.497c0.473,0.53,1.359,1.959,1.002,2.665c-0.396,0.776-1.971,0.898-2.756,1.094
					c-1.371,0.341-1.814-0.292-2.766-1.082c-1.686-1.398-3.643-2.301-5.695-2.74c-0.484-0.106-0.936-0.122-1.486-0.122
					c-0.617,0-0.959,0.238-1.482,0.316c-1.033,0.159-2.141,0.095-3.096,0.368c-0.945,0.275-1.762,0.846-2.727,1.237
					c-0.957,0.387-1.832,0.804-2.859,1.038c-0.961,0.217-2.289,0.562-2.215-0.914c0.068-1.255,0.555-1.729,1.443-2.477
					c0.756-0.637,1.514-1.319,2.533-1.598c1.039-0.279,2.164-0.104,3.143-0.443c0.932-0.322,2.152-0.292,2.229-1.549
					c0.031-0.496-0.102-0.993-0.127-1.485c-0.023-0.472,0.119-1.162-0.061-1.549V57.826z"/>
				<path fill="#87182D" d="M94.998,72.68c0.043,0,0.166,0,0.209,0c1.195,0,2.041,0.165,3.029,0.569
					c1.1,0.451,2.053,1.167,3.006,1.84c0.863,0.61,1.729,1.724,1.928,2.769c0.125,0.672,0.123,2.415,0.139,2.634
					c0.016,0.616-0.039,1.218-0.213,1.797c-1.383,4.661-2.545,9.45-4.162,14.033c-0.605,1.724-1.621,3.315-2.225,4.968
					c-0.525,1.436-1.932,2.346-2.818,3.444c-0.4,0.501-0.719,1.034-1.174,1.489c-0.42,0.418-0.781,0.947-1.348,1.254
					c-0.859,0.471-2.377,0.202-2.865-0.67c-0.504-0.902,0.137-1.99,0.68-2.703c0.289-0.383,0.637-0.832,0.977-1.212
					c0.713-0.796,0.947-1.747,1.562-2.682c0.48-0.724,1.113-1.438,1.566-2.202c0.344-0.582,0.539-1.172,0.877-1.752
					c0.598-1.022,1.496-1.643,1.908-2.777c0.666-1.842,1.844-3.566,1.719-5.625c-0.066-0.031-0.15-0.033-0.203-0.091
					c-0.658-0.697-2.348-0.39-3.248-0.536c-1.383-0.223-2.748-0.193-4.148-0.004c-0.412,0.056-1.188,0.065-1.488,0.445
					c-0.352,0.443-0.029,1.1,0.369,1.365c1.014,0.678,2.215,0.639,3.344,0.987c0.992,0.308,2.084,0.579,2.908,1.237
					c1.076,0.859,0.375,1.781-0.479,2.539c-0.91,0.801-1.992-0.031-2.922-0.447c-1.045-0.465-2.396-0.766-3.463-1.056
					c-0.225-0.062-0.658-0.275-0.881-0.273c-0.465,0.004-0.174-0.054-0.467,0.294c-0.316,0.369-0.598,0.783-0.93,1.176
					c-0.453,0.533-0.695,0.922-1.268,1.328c-0.486,0.348-0.953,0.344-1.504,0.527c-0.812,0.27-2.098,0.983-2.508-0.385
					c-0.342-1.143,0.455-2.076,1.104-2.789c0.758-0.838,1.359-1.768,2.043-2.674c0.637-0.849,1.314-1.517,1.668-2.523
					c0.846-2.394,0.078-4.717,0.078-7.179c0-1.388,0.49-1.812,1.252-2.906c0.596-0.853,1.016-1.89,1.832-2.538
					c0.387-0.309,0.73-0.411,1.182-0.622c0.586-0.271,0.5-0.511,0.5-1.174c0-1.084-0.188-2.116-0.076-3.207
					c0.104-1.026,0.424-1.871,1.145-2.599c0.709-0.709,1.869-0.443,2.703-0.136c1.1,0.409,0.809,1.692,0.809,2.723
					c0,1.044-0.01,2.103-0.125,3.096L94.998,72.68z M89.357,78.84c0.121-0.066,0.568-0.092,0.699-0.14
					c0.834-0.321,1.805-0.14,2.736-0.14c1.285,0,2.295-0.143,3.527,0.174c0.424,0.109,0.932,0.348,1.184,0.695
					c0.229,0.316,0.162,0.705,0.162,1.115c0,1.058-0.48,1.306-1.436,1.404c-1.549,0.155-3.178,0.184-4.734,0.184
					c-0.604,0-1.211-0.024-1.812,0c-0.586,0.027-0.557,0.135-0.557,0.693c0,0.543-0.049,0.758,0.461,0.936
					c0.406,0.138,0.867,0.242,1.268,0.368c1.174,0.374,2.244,0.187,3.482,0.187c1.057,0,2.393,0.129,3.342-0.363
					c0.633-0.326,1.043-1.359,1.104-2.004c0.141-1.613,0.139-3.455-0.941-4.586c-0.65-0.684-1.801-0.828-2.654-1.203
					c-1.072-0.471-2.355-0.352-3.555-0.338c-0.809,0.01-1.816,0.324-2.379,0.914c-0.49,0.518-0.221,1.503-0.221,2.196L89.357,78.84z
					"/>
			</g>
			<g>
				<path fill="#87182D" d="M29.73,68.904c0.166-0.836,0.583-1.995-0.076-2.769c-0.605-0.715-2.061-0.571-2.958-0.573
					c-0.599,0-1.032,0.118-1.591,0.261c-0.482,0.122-1.007,0.058-1.502,0.172c-0.876,0.2-1.781,1.021-2.367,1.652
					c-0.811,0.874-1.223,1.45-1.223,2.742c0,1.096,0,2.186,0,3.28c0,1.038,0.275,2.225,0.666,3.183
					c0.23,0.563,0.599,0.709,1.054,1.085c0.396,0.326,0.554,0.749,1.115,0.885c0.614,0.148,0.737-0.163,1.003-0.635
					c0.291-0.523,0.404-0.703,0.988-0.807c1.025-0.176,2.18,0.094,3.156-0.246c1.516-0.527,2.669-4.467,0.244-4.335
					c-0.977,0.052-1.993,0.445-3.031,0.5c-0.655,0.033-0.934,0.066-1.312-0.439c-0.265-0.351-0.536-0.928-0.345-1.406
					c0.308-0.769,1.836-1.11,2.527-1.389c0.887-0.358,2.146,0.006,2.971-0.42c0.238-0.122,0.449-0.242,0.557-0.494L29.73,68.904z"/>
				<path fill="#87182D" d="M36.598,70.575c-0.828,0-2.365,0.285-3.049-0.168c-0.893-0.592-1.203-1.793-0.434-2.525
					c0.733-0.695,2.007-0.856,2.926-0.957c1.312-0.147,2.906-0.118,4.211,0c1.234,0.11,2.604,0.238,3.897,0.434
					c0.671,0.101,1.424,0.17,1.98,0.505c0.479,0.291,0.764,0.641,1.188,1.024c0.702,0.635,1.613,1.602,1.851,2.537
					c0.307,1.208-0.231,2.125-0.518,3.235c-0.463,1.788-0.617,3.877-2.368,4.921c-0.854,0.509-1.854,0.976-2.769,1.377
					c-0.815,0.356-1.68,0.658-2.083,1.551c1.128,0.063,2.231-0.052,3.337-0.114c1.395-0.075,2.656,0.312,3.888,0.744
					c0.964,0.338,2.308,0.524,2.968,1.377c0.516,0.664,0.685,1.949-0.262,2.381c-1.313,0.604-3.312,0.076-4.676,0.016
					c-1.707-0.077-3.484-0.077-5.19,0.01c0.046,0.837-0.316,1.691-0.185,2.52c2.346,0.12,4.711-0.12,7.046-0.004
					c0.799,0.037,2.375,0.174,2.928,0.863c0.558,0.691-0.359,2.076-0.933,2.521c-1.667,1.292-4.58,0.839-6.695,0.839
					c-3.706,0-7.681,0.095-11.2-0.575c-1.187-0.221-1.775-0.629-2.033-1.854c-0.277-1.318,0.49-1.671,1.721-1.781
					c1.176-0.106,2.296-0.189,3.514-0.184c0.531,0,1.072,0.125,1.376-0.357c0.218-0.346,0.215-1.219-0.077-1.549
					c-0.604-0.688-2.166-0.199-2.82,0.123c-1.202,0.594-1.649,0.564-2.133-0.744c-0.354-0.957-0.82-2.025,0.152-2.771
					c0.85-0.65,1.959-0.674,3.02-0.769c0.705-0.063,1.674-0.019,2.344-0.259c0.215-1.06,0.486-1.753,1.121-2.651
					c0.663-0.936,1.482-1.491,2.479-2.061c1.926-1.1,3.462-2.149,3.587-4.622c0.03-0.581-0.206-1.861-0.663-2.245
					c-0.441-0.374-1.604-0.189-2.175-0.161c-0.206,1.007-0.67,1.803-0.812,2.837c-0.148,1.08-0.641,2.068-1.395,2.805
					c-0.718,0.702-2.087,1.223-3.005,1.691c-0.952,0.488-1.909,0.965-3.014,0.38c-0.812-0.43-1.651-1.634-1.563-2.585
					c0.088-0.918,1.531-1.098,2.242-1.286c0.907-0.241,2.064-0.323,2.648-1.188c0.628-0.936-0.188-2.014-0.187-2.909L36.598,70.575z
					"/>
				<path fill="#87182D" d="M25.334,90.627c0.039,0.91,0.062,2.538,0.062,3.512c0,1.101-0.105,2.638,0.248,3.668
					c0.178,0.52,0.519,1.066,0.881,1.497c0.301,0.358,0.586,0.914,1.039,1.102c0.718,0.298,2.07-0.093,2.773-0.219
					c0.828-0.153,1.551-0.042,2.369,0.079c1.812,0.27,3.635,0.088,5.363,0.583c0.761,0.222,1.683,0.161,2.49-0.075
					c0.574-0.162,1.339-0.24,1.918-0.368c1.374-0.304,2.864-0.002,4.085,0.308c1.061,0.271,1.877,0.893,2.289,1.981
					c0.378,0.999,0.428,1.403,0.867,2.351c0.359,0.783,0.734,2.516,1.732,2.539c1.008,0.021,1.793-0.871,2.486-1.483
					c0.814-0.715,1.035-1.183,0.807-2.31c-0.203-1.006-0.164-2.001-0.912-2.799c-1.488-1.596-2.229-3.859-4.658-4.299
					c-1.16-0.211-2.273-0.128-3.479-0.124c-1.045,0.002-2.096-0.159-3.22-0.126c-3.517,0.098-7.01,0.006-10.473-0.31
					c-1.152-0.104-2.136-0.157-2.572-1.359c-0.355-0.978-0.223-2.245-0.323-3.343c-0.11-1.179-0.11-2.393-0.169-3.59
					c-0.057-1.131,0.084-1.957-0.618-2.861c-0.601-0.775-0.935-1.5-1.361-2.4c-0.348-0.733-0.83-1.878-1.749-1.98l-0.721-0.327
					c-2.973,0-5.234,1.102-5.693,4.316c-0.206,1.45,0.092,2.993,0.092,4.458c0,1.475,0.098,2.902,0.096,4.362
					c-0.01,3.091,0.128,6.218-0.285,9.187c-0.215,1.545,0.523,3.203,2.162,1.884c1.188-0.95,1.649-2.591,1.649-4.085
					c0-3.691-0.37-7.214-0.37-10.885c0-1.197-0.415-3.705,0.572-4.527c1.004-0.837,2.288,1.417,2.304,2.486
					C25.025,88.09,25.314,90.129,25.334,90.627z"/>
				<path fill="#87182D" d="M35.268,60.238c2.17,0,7.314-0.097,9.47-0.104c2.051-0.004,3.68,0.358,5.505,0.718
					c1.214,0.24,3.063,0.936,3.499,2.296c0.559,1.731-1.781,2.094-3.044,2.094c-1.988-0.002-3.598-0.56-5.45-0.839
					c-1.656-0.248-6.335-0.207-8.067-0.24c-2.283-0.039-4.629-0.463-6.99-0.463c-1.371,0-2.795-0.182-4.15-0.093
					c-0.828,0.054-1.591,0.376-2.511,0.463c-1.938,0.19-3.091,0.041-4.593,1.375c-1.123,0.997-1.819,1.989-1.908,3.545
					c-0.189,3.333-0.071,6.82,0.191,10.122c0.125,1.575,0.216,3.294,0.186,5.014c-0.035,1.962-0.64,3.921-0.743,5.938
					c-0.099,1.947-0.099,3.875-0.093,5.829c0.006,1.785-0.312,3.452-0.371,5.313c-0.036,1.195-0.047,3.646-0.688,4.617
					c-0.894,1.361-3.129,0.766-3.213-0.902c-0.184-3.711,0.566-7.139,0.559-10.845c-0.006-1.919,0.411-3.704,0.63-5.604
					c0.191-1.676,0.111-3.395,0.111-5.084c0-3.099,0-6.193,0-9.291c0,0-0.026-2.816-0.185-3.804
					c-0.162-1.022-0.105-2.108-0.094-3.253c0.033-2.951,2.617-5.751,5.479-6.22c3.176-0.515,6.744-0.099,10.01-0.384
					c0.406,0.083,0.918-0.96,1.387-1.404c0.48-0.449,0.945-1.326,1.392-1.578c1.401-0.79,3.22,0.279,3.437,2.105L35.268,60.238z"/>
			</g>
			<g>
				<path fill="#87182D" d="M37.098,10.656c1.248,0,2.445,0.046,3.621,0.23c0.934,0.149,1.817,0.465,2.726,0.608
					c1.274,0.199,2.619,0.11,3.914,0.232c0.699,0.066,1.342,0.184,2.041,0.184c0.416,0,0.864-0.043,1.277,0.009
					c0.896,0.114,1.832,0.444,2.725,0.676c0.908,0.234,1.616,0.552,2.158,1.312c0.357,0.501,0.833,1.301,0.059,1.716
					c-0.928,0.496-2.713,0.294-3.748,0.234c-0.529-0.031-0.913-0.23-1.439-0.279c-0.672-0.062-1.363-0.097-2.043-0.097
					c-0.812,0.004-1.57-0.099-2.371-0.281c-0.777-0.176-1.529-0.563-2.329-0.714c-1.221-0.23-2.483-0.484-3.758-0.767
					c-3.066-0.674-6.387-0.14-9.479,0.139c-0.583,0.052-1.15,0.087-1.742,0.093c-0.519,0.003-0.826,0.182-1.266,0.279
					c-0.217,0.05-0.471-0.051-0.689-0.002c-0.184,0.041-0.301,0.151-0.47,0.223c-0.454,0.184-0.954,0.273-1.417,0.403
					c-0.768,0.213-1.818,0.308-2.527,0.672c-0.71,0.366-1.447,0.751-2.209,1.092c-0.723,0.328-1.391,0.637-2.238,0.444
					c-0.808-0.18-1.504-0.552-2.201-0.955c-0.699-0.4-1.482-0.917-0.664-1.7c0.705-0.678,1.303-0.949,2.159-1.375
					c1.034-0.511,2.251-0.577,3.436-0.751c1.054-0.149,1.995-0.339,3.016-0.531c1.952-0.37,4.042-0.571,6.032-0.819
					c0.709-0.087,1.723,0.289,1.905-0.507c0.183-0.794,0.553-1.175,1.392-1.427c0.791-0.242,1.777-0.12,2.529,0.138
					c0.874,0.3,0.979,0.744,1.276,1.52H37.098z"/>
				<path fill="#87182D" d="M45.313,19.384c-0.381,0.62-1.188,0.983-2.094,0.896c-0.494,0.062-0.771,0.031-1.11,0.031
					c-0.617,0-1.193,0.078-1.803,0.172c-1.51,0.242-3.482,0.101-5.027,0.044c-3.383-0.12-6.459-0.225-9.799,0.105
					c-0.863,0.085-1.796,0.246-2.586-0.087c-0.395-0.167-0.476-0.569-0.707-0.92c-0.243-0.372-0.333-0.476-0.441-0.914
					c-0.189-0.759-0.088-1.745,0.412-2.289c0.493-0.537,1.251-0.817,1.877-1.052c0.729-0.273,1.695-0.191,2.478-0.306
					c0.935-0.14,1.796-0.321,2.741-0.417c1.736-0.176,3.428-0.279,5.295-0.279c1.694,0,3.348,0.132,5.004,0.236
					c0.856,0.052,1.752,0.027,2.571,0.227c0.812,0.197,1.629,0.616,2.357,0.932c0.549,0.234,1.557,0.635,1.762,1.249
					c0.26,0.767-0.374,1.621-0.745,2.138L45.313,19.384z M29.09,16.918c-0.484,0-1.072-0.077-1.504,0.085
					c-0.278,0.103-0.828,0.155-0.951,0.466c-0.205,0.523,0.279,0.603,0.664,0.603c0.882,0,1.76,0.015,2.639,0.058
					c0.822,0.041,1.646,0.023,2.473,0.023c0.834,0.004,1.664-0.125,2.5-0.12c1.518,0.002,3.038-0.118,4.551-0.182
					c0.438-0.021,0.873-0.068,1.311-0.089c0.305-0.014,0.48-0.073,0.759-0.145c0.491-0.124,0.533-0.362,0.107-0.659
					c-0.386-0.269-0.793-0.304-1.257-0.346c-1.252-0.111-2.52-0.066-3.777-0.008c-1.515,0.068-3.021,0.203-4.539,0.213
					c-0.912,0.002-1.816,0.12-2.727,0.12L29.09,16.918z"/>
				<path fill="#87182D" d="M47.726,25.141c-0.948,0-1.298,0.087-1.437,1.015c-0.073,0.496-0.286,0.848-0.455,1.269
					c-0.163,0.416-0.225,0.827-0.354,1.233c-0.303,0.945-1.379,1.553-2.396,1.731c-0.258,0.046-0.543-0.016-0.807,0.025
					c-0.698,0.116-1.315,0.298-2.032,0.354c-1.258,0.089-2.45,0.232-3.704,0.324c-1.116,0.079-2.128,0.18-3.251,0.091
					c-1.172-0.089-2.354-0.242-3.514-0.291c-0.447-0.017-2.85-0.153-2.718-1.013c-0.259-0.11-0.44-0.315-0.632-0.521
					c-0.602-0.639-1.461-1.189-1.952-1.99c-0.21-0.341-0.405-0.769-0.513-1.164c-0.091-0.331,0.019-0.854-0.276-1.021
					c-0.713-0.399-1.85,0.453-2.458,0.662c-0.564,0.198-1.021,0.283-1.624,0.358c-0.611,0.078-1.275,0.039-1.84,0.339
					c-0.923,0.488-1.423,2.041-1.413,3.054c0.014,0.906,0.502,1.623,0.511,2.506c0.016,1.365-0.194,4.026-2.089,3.944
					c-0.879-0.039-1.355-0.887-1.578-1.625c-0.403-1.348-0.648-2.777-0.844-4.146c-0.17-1.179-0.084-2.289,0.232-3.385
					c0.172-0.596,0.182-1.394,0.58-1.894c0.357-0.447,0.797-0.861,1.238-1.284c0.771-0.742,1.729-1.22,2.799-1.5
					c0.259-0.07,0.576-0.043,0.826-0.134c0.113-0.041,0.367-0.083,0.508-0.099c0.155-0.012,0.39-0.012,0.645,0
					c0.584,0.031,1.176,0.05,1.76,0.05c1.601-0.008,3.741,0.217,5.206-0.234c0.824-0.252,1.31-0.432,2.182-0.558
					c0.931-0.132,1.987-0.091,2.926-0.091c1.175,0,2.31,0.053,3.479,0.091c1.947,0.066,4.137-0.087,6.08,0
					c2.759,0.128,5.325-0.006,8.077,0.236c1.02,0.089,1.984,0.127,2.969,0.273c0.449,0.07,0.906,0.079,1.352,0.174
					c0.434,0.089,0.717,0.36,1.12,0.65c0.747,0.542,1.162,0.862,1.6,1.685c0.396,0.745,0.769,1.472,0.989,2.287
					c0.262,0.968,0.499,2.078,0.557,3.133c0.045,0.815,0.086,1.996-0.334,2.699c-0.357,0.591-1.436,1.125-2.021,1.452
					c-0.355,0.2-0.807,0.242-1.18,0.091c-0.562-0.225-0.737-0.67-0.871-1.216c-0.434-1.735-0.98-3.491-1.406-5.189
					c-0.188-0.753-0.207-1.6-1.012-2.041c-0.551-0.3-1.346-0.333-2.088-0.291L47.726,25.141z M40.951,24.581
					c0.33,0,0.91,0.093,0.834-0.417c-0.062-0.42-0.65-0.327-1.009-0.327c-1.029,0.002-2.058,0-3.087,0
					c-2.887,0-5.709,0.374-8.578,0.374c-0.259,0-1.012-0.176-1.205-0.05c-0.475,0.31,0.025,0.655,0.338,0.697
					c1.213,0.17,2.527-0.05,3.75,0c2.459,0.104,4.893,0.124,7.334,0.002c0.254-0.014,0.534-0.025,0.74-0.093L40.951,24.581z
					 M39.418,27.97c0.416-0.138,0.768-0.244,1.16-0.325c0.225-0.048,0.948,0.067,1.069-0.138c0.273-0.469-0.666-0.372-0.896-0.372
					c-0.914,0-1.821-0.085-2.737-0.093c-2.1-0.021-4.198,0.045-6.301,0.045c-0.856,0-1.534-0.14-2.366-0.14
					c-0.361,0-0.748-0.091-0.921,0.283c-0.185,0.405,0.097,0.693,0.409,0.786c1.01,0.298,2.449,0.052,3.48,0.093
					c1.271,0.056,2.544,0.138,3.796,0.138c0.96,0,1.841-0.139,2.796-0.139L39.418,27.97z"/>
				<path fill="#87182D" d="M42.203,42.032c0.851,0,1.626,0.081,2.228,0.716c0.777,0.823,1.043,1.809,1.578,2.769
					c0.549,0.974,1.18,1.973,1.64,2.951c0.58,1.224,0.878,2.55,1.331,3.811c0.382,1.063,0.132,2.477,0.719,3.438
					c0.621,1.017,2.328,0.819,3.133,0.099c1.123-1.007,0.914-2.498,0.838-3.933c-0.061-1.12-0.236-2.343-0.85-3.25
					c-0.603-0.887-0.761-2.053-1.229-3.11c-0.213-0.479-0.582-1.009-0.889-1.491c-0.494-0.774-0.967-1.344-1.389-2.132
					c-0.509-0.955-0.855-1.977-1.588-2.845c-0.664-0.782-1.541-1.247-2.504-1.559c-0.855-0.277-1.642-0.337-2.357,0.186
					c-0.729,0.537-1.579,0.868-2.355,1.359c-0.722,0.457-1.479,0.707-2.063-0.004c-0.518-0.624-0.953-1.367-1.117-2.194
					c-0.062-0.317-0.088-0.637-0.183-0.937l-0.095-0.697c1.762,0,3.527,0.046,5.296,0.046c2.014,0,4.117,0.163,6.113-0.044
					c0.791-0.082,2.06-0.271,2.006-1.255c-0.045-0.831-0.4-1.557-1.059-2.066c-0.621-0.477-1.457-0.535-2.248-0.535
					c-1.359,0.002-2.344,0.093-3.701,0.093c-1.551,0-3.052,0.14-4.597,0.14c-1.871,0-4.137,0.19-6.035,0.188
					c-2.984-0.008-5.961,0.137-8.948,0.137c-0.999,0-1.989,0.046-2.989,0.046c-0.499,0-0.823-0.029-1.24,0.221
					c-0.531,0.313-1.996,1.363-1.847,2.087c0.091,0.445,1.115,0.708,1.521,0.755c0.912,0.106,1.674,0.093,2.59,0.093
					c1.619,0,3.233-0.047,4.846-0.047c0.709,0,1.721-0.242,2.406-0.046c1.006,0.289-0.914,0.529-1.198,0.649
					c-0.661,0.281-1.528,0.438-2.146,0.697l-0.696,0.279c-1.112,0.195-2.127,0.56-3.299,0.699c-1.238,0.149-2.438,0.62-3.656,0.96
					c-0.547,0.155-0.847,0.409-1.272,0.742c-0.335,0.262-0.774,0.43-1.112,0.689c-0.578,0.438-1.484,1.466-1.02,2.294
					c0.371,0.665,2.035,0.767,2.756,0.742c1.361-0.044,2.659-0.606,3.974-0.931c1.294-0.32,2.522-0.962,3.782-1.299
					c0.59-0.159,0.994-0.475,1.555-0.74c0.575-0.275,1.17-0.441,1.725-0.732c0.473-0.248,0.989-0.161,1.479-0.333
					c0.27-0.095,0.777-0.44,1.124-0.225c0.536,0.329-0.298,0.627-0.577,0.724c-0.57,0.201-0.905,0.43-1.371,0.716
					c-0.809,0.498-1.859,0.784-2.773,1.083c-1.385,0.455-2.711,1.032-3.995,1.788c-1.329,0.782-2.868,1.292-4.337,1.781
					c-0.633,0.211-1.275,0.381-1.893,0.627c-0.623,0.251-1.07,0.676-1.58,1.053c-0.815,0.608-1.32,1.098-1.25,2.204
					c0.079,1.271,0.955,1.935,2.213,1.942c1.39,0.01,2.824-0.914,3.866-1.716c1.263-0.976,2.569-1.29,3.806-2.136
					c0.617-0.422,1.332-0.633,1.996-0.976c0.807-0.418,1.481-0.728,2.273-1.164c0.862-0.469,1.752-0.941,2.652-1.342
					c0.698-0.312,1.4-0.503,2.097-0.765c0.53-0.199,0.944-0.459,1.564-0.397c0.714,0.074,0.761,0.527,0.229,0.918
					c-0.437,0.325-1.096,0.548-1.609,0.813c-0.51,0.259-1.025,0.55-1.498,0.823L30.6,44.679c-0.739,0.631-1.551,1.098-2.447,1.485
					c-0.995,0.428-1.953,1.073-2.846,1.719c-0.392,0.281-0.746,0.608-1.135,0.893c-0.398,0.287-0.835,0.482-1.24,0.773
					c-0.532,0.389-1.203,0.724-1.799,1.069c-0.557,0.325-0.844,0.575-1.254,1.022c-0.594,0.652-1.936,1.592-1.856,2.599
					c0.073,0.962,1.022,1.442,1.9,1.532c1.067,0.112,2.393-0.48,3.193-1.183c0.564-0.498,1.087-0.955,1.683-1.408
					c0.696-0.529,1.266-1.166,1.949-1.726c1.697-1.392,3.555-2.498,5.516-3.495c0.867-0.441,2.268-1.816,3.344-1.092
					c0.054,0.374-0.113,0.778-0.238,1.108c-0.163,0.412-0.255,0.879-0.405,1.336c-0.278,0.827-0.559,1.694-0.917,2.517
					c-0.352,0.81-1.008,1.579-1.43,2.328c-0.295,0.523-0.711,1.609-0.158,2.163c0.51,0.511,1.503,0.496,2.223,0.475
					c0.467-0.016,0.87-0.132,1.291-0.339c0.451-0.217,0.62-0.571,0.918-0.955c0.71-0.916,1.199-2.279,1.693-3.374
					c0.65-1.438,1.322-2.962,1.707-4.489c0.275-1.098,0.393-2.372,0.334-3.516c-0.021-0.407-0.181-1.044,0.07-1.357
					c0.213-0.264,0.654-0.519,0.998-0.544L42.203,42.032z"/>
			</g>
			<path fill="#87182D" d="M63.669,52.729c-1.215,0-1.998-0.289-2.397-0.889c-0.22-0.327-0.409-0.891-0.085-1.712l0.033-0.069
				c0.533-1.062,1.739-1.365,3.58-1.365l0.225,0.012c0.085,0.015,0.242,0.037,0.471,0.067c1.407,0.196,2.778,0.254,3.686,0.294
				c0.905,0.041,2.819-0.219,4.065-0.209c0.653,0.006,2.163,0.25,3.122,0.333c0.955,0.083,1.954-0.251,1.954-0.251l2.902,0.127
				c-0.01-0.449,0.117-1.272,0.1-1.915c-0.02-0.695,0.029-1.557-0.043-2.48c-0.023-0.321,0.053-1.394,0.043-1.79l-0.273-0.046
				l-3.575,0.213l-4.551-0.213c-1.938,0.014-3.254,0.031-3.908,0.046c-0.23,0.01-0.465,0.016-0.686,0.016
				c-1.727,0-2.682-0.321-3.101-1.038c-0.196-0.335-0.347-0.889,0.048-1.646c0.426-0.889,1.4-1.34,2.9-1.34
				c0.275,0,0.576,0.016,0.897,0.045c1.005,0.124,2.338,0.182,3.983,0.182l3.973,0.23l3.97-0.23
				c-0.014-0.347-0.027-0.732-0.041-1.146c-0.016-0.473-0.031-1.133-0.047-1.468c-1.982,0.003-3.878-0.159-5.767-0.134
				c-1.848,0.021-4.032,0.229-5.768,0.271c-0.162,0.008-0.332,0.01-0.492,0.01c-1.699,0-2.721-0.353-3.213-1.108
				c-0.246-0.379-0.458-0.769-0.057-1.717l0.036-0.078c0.332-0.614,0.983-1.022,1.989-1.253c0.787-0.172,1.572-0.106,2.343,0.186
				c0.232,0.052,1.376,0.17,6.866,0.19c2.892,0.008,6.435,0.18,9.278,0.157c2.539-0.025,4.387-0.244,6.855-0.296
				c0.711-0.031,1.619-0.054,2.76-0.068c0.574-0.017,1.621,0.142,2.309,0.142l2.828-0.387c0.588,0.006,2.219-0.058,2.139,1.536
				l0.02,0.091l0.115,0.478c0,1.244-1.715,1.124-2.316,1.321l-0.109,0.027c-1.16,0.213-3.158,0.391-6.102,0.546
				c-1.297,0.062-2.578,0.11-3.816,0.142c-1.262,0.015-2.654,0.015-3.773,0h-0.262c-0.006,0.205-0.016,0.438-0.025,0.701
				c-0.033,0.593-0.061,1.367-0.074,1.814c1.686-0.002,4.229,0.093,6.496,0.082c1.494-0.006,2.781-0.116,4.518-0.128l2.18,0.087
				c0.145-0.006,1.014-0.091,1.162-0.091c1.896,0,2.713,0.255,3.018,0.939c0.08,0.176,0.203,0.604-0.102,1.104
				c-0.459,1.39-1.707,1.336-3.256,1.545c-0.988,0.11-2.49,0.031-5.064,0.079c-1.268,0.025-2.98,0.198-4.65,0.209l-1.631-0.209
				l-2.709,0.209c-0.002,0.134-0.006,0.701-0.012,0.833c-0.018,0.519-0.037,0.598-0.055,1.38l0.096,1.573l-0.125,1.636l0.166,0.873
				l4.51,0.126l5.988-0.335l5.227,0.168c0.156-0.004,0.314-0.004,0.475-0.004c1.977,0,2.891,0.256,3.26,0.914
				c0.191,0.339,0.195,0.43,0.021,0.802c-0.281,0.877-1.115,1.566-3.254,1.851c-0.664,0.101-2.803-0.251-5.604-0.221
				c-1.148,0.012-2.262,0.25-3.787,0.25c-2.602-0.023-4.846,0.091-7.805,0.081c-1.824-0.006-4.266-0.137-6.209-0.137
				c-1.418,0-2.882-0.144-4.384-0.14c-2.512,0.004-5.123,0.157-7.816,0.17c-1.864,0.016-3.039,0.025-3.521,0.025H63.669z
				 M85.719,31.982c-0.865,0-1.396,0.151-2.363,0.144c-4.318-0.031-7.372-0.095-9.077-0.19l-0.111-0.014
				c-3.256-0.662-6.377-2.502-9.275-5.468c-1.02-1.129-1.674-2.516-1.96-4.146c-0.311-1.613,0.438-3.366,0.567-5.093
				c0.12-1.625,0.947-3.152,2.248-4.341c0.168-0.157,0.291-0.273,0.361-0.349c0.464-0.585,1.066-0.898,1.752-0.898
				c0.531,0,0.557-0.056,1.17,0.308l0.555,0.331c0.643,0.473,0.543,0.744,0.831,1.35c0.251,0.53-0.213,1.82-0.776,2.585
				c-0.698,0.538,2.036,0.122,3.514,0.099c1.238-0.02,3.58,0.004,5.265-0.085c1.145-0.054,2.713,0.251,2.703-0.242
				c-0.127-1.241-0.238-2.599-0.33-4.053c-0.053-1.179,0.143-2.635,0.5-3.231c0.645-1.073,1.766-0.744,2.529-0.804l0.502,0.012
				l0.107,0.125c1.049,0.02,1.066,0.3,1.682,1.104l0.031,0.042c0.58,0.877,0.707,1.875,0.359,2.891
				c-0.086,0.267-0.238,1.158-0.32,3.898c-0.037,0.134,0.111,0.221,0.361,0.219c1.275-0.01,3.088-0.01,4.084-0.085
				c0.791-0.054,1.078-0.184,1.914-0.206c0.949-0.025,2.83,0.082,3.592,0.095c-0.357-0.657-0.742-1.249-1.15-1.766l-0.045-0.064
				c-0.369-0.575-0.271-1.051-0.18-1.284c0.271-0.699,0.709-0.852,0.959-0.904l0.078-0.01c0.766-0.076,1.646,0.12,2.611,0.581
				l0.035,0.019c1.215,0.665,2.58,1.069,2.838,2.791c0.199,1.331,0.822,2.872,1.045,4.303l0.006,0.042
				c0.369,3.474-0.238,5.92-1.85,7.97c-1.998,2.363-4.797,3.707-8.336,4.016c-0.848,0.049-2.039,0.082-3.562,0.095
				C87.814,31.779,86.588,31.982,85.719,31.982z M70.062,25.681c-0.455,0.204,0.887,1.18,2.85,1.809
				c1.057,0.341,3.175,0.951,4.168,0.994c1.38,0.044,2.536-0.099,4.938-0.099c1.055,0,1.926,0.18,3.354,0.207
				c0.945,0.018,1.904-0.136,3.031-0.167c1.043-0.029,2.248,0.07,3.176,0.056h0.1c1.902,0,3.711-1.061,4.373-1.967
				c0.254-0.339,0.484-0.672,0.691-1.001c-1.518-0.013-3.377-0.269-5.197,0.021c-1.035,0.167-3.916,0.099-5.867,0.099
				c-1.621,0-4.104-0.155-5.742-0.099c-2.071,0.074-3.347,0.362-5.944,0.375C73.187,25.913,70.894,25.677,70.062,25.681z
				 M68.029,19.92c0.005,0.242,0.027,0.49,0.058,0.748c0.056,0.424,0.146,0.866,0.275,1.328c0.104,0.128,0.316,0.211,0.502,0.211
				c1.955-0.004,4.591-0.108,6.443-0.124c1.535-0.016,3.103-0.202,4.468-0.252c1.227-0.044,3.133,0.085,4.469,0.085
				c0.893,0,2.672,0.083,3.51,0.083c3.576,0.002,5.504-0.189,9.154-0.125c0.438-0.25,0.666-0.599,0.666-0.792
				c0-0.43-0.041-0.879-0.115-1.348c-0.205-0.004-1.133-0.143-1.352-0.149c-1.311-0.016-2.455,0.118-4.252,0.118
				c-0.547,0-1.912-0.118-2.504-0.118c-2.455,0.008-4.273,0.275-7.342,0.333C78.344,19.988,73,19.85,68.029,19.92z"/>
		</g>
	</g>
</g>
</svg>
