<?xml version="1.0" encoding="utf-8"?>
<!-- Generator: Adobe Illustrator 15.1.0, SVG Export Plug-In . SVG Version: 6.00 Build 0)  -->
<!DOCTYPE svg PUBLIC "-//W3C//DTD SVG 1.1//EN" "http://www.w3.org/Graphics/SVG/1.1/DTD/svg11.dtd">
<svg version="1.1" id="Layer_1" xmlns="http://www.w3.org/2000/svg" xmlns:xlink="http://www.w3.org/1999/xlink" x="0px" y="0px"
	 viewBox="18.5 35.5 342 443" enable-background="new 18.5 35.5 342 443" xml:space="preserve">
<polygon fill="#FFFFFF" points="66.902,78.838 62.379,240.301 72.062,323.616 213.777,330.076 309.742,320.388 312.325,188.634 
	306.835,80.452 300.054,73.995 104.335,73.995 "/>
<g>
	<g>
		<g>
			<path fill="#FFFFFF" d="M57.931,378.662c1.741-0.1,8.209-0.299,14.131-0.299c-1.444,11.443-2.686,16.72-3.085,17.663h-0.349
				c-1.989-0.298-3.881-1.194-4.528-1.892c-2.538,1.095-5.673,1.792-7.413,1.792c-10.449,0-18.014-6.718-18.014-17.068
				c0-10.298,8.211-17.513,19.606-17.513c3.332,0,5.671,0.696,7.61,1.643c1.692-0.647,3.585-1.095,4.678-1.342l0.748,0.498
				c-0.05,0.996-1.643,7.364-2.291,9.305l-1.59,0.796c-0.946-2.14-1.844-4.976-2.439-6.62c-1.045-0.496-2.288-1.043-5.176-1.043
				c-7.661,0-12.885,5.276-12.885,13.782c0,7.266,3.732,13.931,13.086,13.931c1.093,0,2.936-0.199,3.482-0.498
				c-0.099-3.084,0.25-6.22,0.5-9.751l-8.112-0.499l-0.249-0.646L57.931,378.662z"/>
			<path fill="#FFFFFF" d="M69.194,396.355h-0.565c-1.98-0.292-3.801-1.128-4.599-1.833c-2.411,1.009-5.464,1.734-7.342,1.734
				c-10.799,0-18.341-7.152-18.341-17.396c0-10.505,8.196-17.841,19.934-17.841c2.892,0,5.321,0.513,7.628,1.612
				c1.606-0.602,3.381-1.032,4.589-1.306l0.135-0.033l1.019,0.681l-0.01,0.188c-0.051,1.031-1.659,7.456-2.304,9.392l-0.042,0.129
				l-2.023,1.011l-0.138-0.315c-0.686-1.554-1.349-3.479-1.884-5.026c-0.19-0.548-0.364-1.054-0.519-1.485
				c-0.928-0.442-2.127-0.955-4.912-0.955c-7.63,0-12.555,5.282-12.555,13.453c0,8.517,4.768,13.603,12.756,13.603
				c1.004,0,2.521-0.17,3.149-0.384c-0.059-2.327,0.126-4.701,0.326-7.208c0.053-0.663,0.105-1.334,0.155-2.022l-7.99-0.49
				l-0.403-1.046l2.533-2.475l0.124-0.008c1.825-0.104,8.294-0.298,14.148-0.298h0.372l-0.047,0.368
				c-1.36,10.782-2.627,16.608-3.107,17.75L69.194,396.355z M64.184,393.742l0.156,0.17c0.591,0.636,2.417,1.5,4.335,1.79
				l0.071-0.002c0.397-1.189,1.546-6.04,2.941-17.008c-5.613,0.008-11.685,0.188-13.615,0.291l-2.048,2.002l0.097,0.247l8.229,0.506
				l-0.023,0.329c-0.057,0.806-0.119,1.591-0.179,2.36c-0.204,2.569-0.394,4.995-0.318,7.36l0.008,0.201l-0.178,0.097
				c-0.636,0.349-2.556,0.54-3.641,0.54c-9.892,0-13.416-7.367-13.416-14.261c0-8.571,5.188-14.109,13.215-14.109
				c3.057,0,4.363,0.621,5.316,1.077l0.119,0.056l0.046,0.129c0.168,0.459,0.36,1.014,0.567,1.622
				c0.494,1.433,1.097,3.188,1.727,4.657l1.16-0.581c0.661-2.042,2.033-7.583,2.213-8.909l-0.465-0.308
				c-1.217,0.279-2.951,0.707-4.495,1.298l-0.132,0.051l-0.127-0.062c-2.25-1.096-4.625-1.609-7.468-1.609
				c-11.351,0-19.277,7.067-19.277,17.186c0,10.011,7.107,16.738,17.684,16.738c1.549,0,4.629-0.617,7.283-1.762L64.184,393.742z"/>
		</g>
		<g>
			<path fill="#FFFFFF" d="M87.926,370.768c5.408,0,12.751,3.438,12.895,12.146c0.108,8.775-6.878,12.751-13.003,12.751
				c-5.874,0-13.073-3.832-13.073-12.214c0-7.773,6.483-12.682,13.145-12.682H87.926z M87.353,372.632
				c-4.299,0-6.557,4.549-6.557,10.136c0,5.731,2.687,11.067,7.486,11.067c5.087,0,6.485-5.767,6.485-10.458
				c0-4.442-2.329-10.745-7.38-10.745H87.353L87.353,372.632z"/>
			<path fill="#FFFFFF" d="M87.817,395.991c-6.499,0-13.402-4.397-13.402-12.542c0-8.144,6.85-13.011,13.474-13.011
				c5.27,0,13.107,3.321,13.259,12.468c0.045,3.662-1.147,6.826-3.445,9.154C95.236,394.558,91.633,395.991,87.817,395.991z
				 M87.926,371.095c-6.337,0-12.854,4.621-12.854,12.354c0,7.719,6.567,11.885,12.745,11.885c3.586,0,7.107-1.396,9.417-3.735
				c2.171-2.199,3.299-5.204,3.258-8.682C100.35,374.244,92.897,371.095,87.926,371.095z M88.284,394.164
				c-5.128,0-7.814-5.733-7.814-11.396c0-6.357,2.703-10.465,6.884-10.465h0.036c5.317,0,7.708,6.478,7.708,11.075
				C95.095,385.906,94.605,394.164,88.284,394.164z M87.353,372.959c-3.782,0-6.227,3.851-6.227,9.809
				c0,5.336,2.461,10.739,7.157,10.739c5.711,0,6.155-7.754,6.155-10.131c0-4.2-2.24-10.418-7.051-10.418L87.353,372.959
				L87.353,372.959z"/>
		</g>
		<g>
			<path fill="#FFFFFF" d="M117.517,370.768c5.408,0,12.751,3.438,12.893,12.146c0.109,8.775-6.877,12.751-13.001,12.751
				c-5.874,0-13.073-3.832-13.073-12.214c0-7.773,6.483-12.682,13.143-12.682H117.517z M116.943,372.632
				c-4.299,0-6.558,4.549-6.558,10.136c0,5.731,2.688,11.067,7.488,11.067c5.087,0,6.485-5.767,6.485-10.458
				c0-4.442-2.331-10.745-7.38-10.745H116.943L116.943,372.632z"/>
			<path fill="#FFFFFF" d="M117.408,395.991c-6.499,0-13.402-4.397-13.402-12.542c0-8.144,6.849-13.011,13.472-13.011
				c5.271,0,13.11,3.321,13.26,12.468c0.045,3.662-1.146,6.826-3.446,9.157C124.825,394.558,121.223,395.991,117.408,395.991z
				 M117.517,371.095c-6.338,0-12.854,4.621-12.854,12.354c0,7.719,6.568,11.885,12.745,11.885c3.586,0,7.107-1.396,9.417-3.735
				c2.172-2.199,3.3-5.204,3.257-8.682C129.94,374.244,122.488,371.095,117.517,371.095z M117.874,394.164
				c-5.129,0-7.815-5.733-7.815-11.396c0-6.357,2.703-10.465,6.884-10.465h0.037c5.316,0,7.708,6.478,7.708,11.075
				C124.685,385.906,124.195,394.164,117.874,394.164z M116.943,372.959c-3.783,0-6.228,3.851-6.228,9.809
				c0,5.336,2.461,10.739,7.158,10.739c5.711,0,6.155-7.754,6.155-10.131c0-4.2-2.24-10.418-7.051-10.418L116.943,372.959
				L116.943,372.959L116.943,372.959z"/>
		</g>
		<g>
			<path fill="#FFFFFF" d="M132.777,371.592c0.643-0.07,4.51-0.464,9.025-0.464c11.284,0,15.508,4.622,15.508,11.533
				c0,6.877-4.478,9.958-7.985,11.21c-2.831,1.039-5.912,1.219-11.104,1.219c-2.221,0-4.802-0.071-6.054-0.107l0.429-1.397
				l2.58-1.003c0.143-0.645,0.215-3.87,0.215-9.888v-9.024l-2.902-0.789L132.777,371.592z M140.728,382.696
				c0,5.945,0,10.102,0.144,10.602c2.328,0,5.551-0.465,7.807-2.685c1.827-1.864,2.794-4.3,2.794-7.667
				c0-2.72-0.751-5.623-3.189-7.629c-2.221-1.863-4.693-2.186-7.557-2.186v9.565H140.728L140.728,382.696z"/>
			<path fill="#FFFFFF" d="M138.222,395.418c-2.347,0-5.145-0.08-6.064-0.106l-0.432-0.014l0.604-1.96l2.554-0.996
				c0.118-0.918,0.178-4.158,0.178-9.647v-8.775l-2.961-0.804l0.405-1.826l0.233-0.024c0.436-0.049,4.375-0.467,9.064-0.467
				c10.509,0,15.838,3.993,15.838,11.861c0,7.474-5.139,10.426-8.204,11.521C146.573,395.233,143.536,395.418,138.222,395.418z
				 M132.608,394.666c1.182,0.035,3.573,0.095,5.613,0.095c5.235,0,8.218-0.178,10.992-1.197c2.904-1.037,7.771-3.833,7.771-10.902
				c0-7.435-5.108-11.205-15.18-11.205c-4.185,0-7.767,0.337-8.758,0.438l-0.168,0.755l2.842,0.771v9.276
				c0,8.031-0.125,9.529-0.22,9.958l-0.04,0.172l-2.596,1.01L132.608,394.666z M140.872,393.627h-0.248l-0.067-0.24
				c-0.149-0.522-0.155-3.838-0.155-10.692v-9.892h0.327c3.044,0,5.53,0.384,7.77,2.261c2.161,1.781,3.304,4.505,3.304,7.88
				c0,3.332-0.944,5.915-2.888,7.896C146.576,393.145,143.251,393.627,140.872,393.627z M141.058,373.463v9.234
				c0,5.077,0,9.19,0.095,10.273c2.232-0.038,5.209-0.534,7.296-2.591c1.815-1.849,2.698-4.279,2.698-7.433
				c0-3.218-1.033-5.698-3.069-7.376C146.069,373.886,143.81,373.488,141.058,373.463z"/>
		</g>
		<g>
			<path fill="#FFFFFF" d="M160.534,362.242c2.29,0,4.528,0,6.769,0h13.281c0.847-0.146,4.379-0.595,5.424-0.646l0.101,0.2
				c-0.049,1.593-1.093,7.315-1.494,8.758l-1.295,0.448c-0.993-2.09-1.891-3.982-2.786-5.923l-9.056,0.299v11.941
				c4.328,0,9.305-0.398,12.837-0.747l0.548,0.796c-0.148,0.693-2.538,3.68-3.483,3.68c-0.696,0-7.862-0.597-9.901-0.597
				c0,8.209,0.099,9.9,0.202,10.896l5.97,1.591l-0.696,2.041c-2.938,0-5.972-0.049-8.956-0.049c-2.637,0-5.324,0.049-7.961,0.049
				l0.397-1.988l3.434-1.544c0.149-0.695,0.199-4.378,0.199-13.385v-12.339l-4.179-1.543L160.534,362.242z"/>
			<path fill="#FFFFFF" d="M177.185,395.312h-0.232c-1.463,0-2.949-0.014-4.445-0.025c-2.826-0.026-5.65-0.03-8.49,0
				c-1.333,0.011-2.664,0.025-3.983,0.025h-0.401l0.511-2.549l3.426-1.54c0.14-1.13,0.168-5.907,0.168-13.158v-12.11l-4.262-1.573
				l0.822-2.466h20.288c0.779-0.14,4.332-0.595,5.408-0.645l0.215-0.011l0.231,0.465l-0.004,0.082
				c-0.048,1.595-1.08,7.298-1.501,8.836l-0.045,0.165l-1.736,0.602l-0.124-0.266c-0.961-2.019-1.831-3.854-2.697-5.728l-8.52,0.282
				v11.294c4.265-0.019,9.117-0.412,12.477-0.744l0.194-0.019l0.736,1.073l-0.03,0.138c-0.153,0.717-2.627,3.941-3.804,3.941
				c-0.27,0-1.354-0.077-2.852-0.185c-2.248-0.16-5.268-0.375-6.722-0.408c0.002,7.354,0.086,9.282,0.177,10.304l6.091,1.623
				L177.185,395.312z M167.998,394.604c1.499,0,3.011,0.014,4.517,0.025c1.413,0.014,2.819,0.024,4.204,0.027l0.507-1.486
				l-5.851-1.559l-0.023-0.228c-0.101-1.009-0.202-2.683-0.202-10.93v-0.329h0.327c1.303,0,4.651,0.24,7.1,0.415
				c1.371,0.099,2.557,0.185,2.801,0.185c0.669,0,2.781-2.486,3.12-3.301l-0.345-0.505c-3.452,0.338-8.388,0.73-12.677,0.73h-0.327
				v-12.588l9.59-0.315l0.091,0.198c0.855,1.858,1.715,3.671,2.657,5.654l0.85-0.293c0.42-1.641,1.331-6.703,1.43-8.36
				c-1.263,0.096-4.385,0.497-5.13,0.626l-19.872,0.007l-0.471,1.414l4.097,1.509v12.566c0,9.337-0.052,12.732-0.208,13.453
				l-0.035,0.164l-3.431,1.542l-0.286,1.433c1.185-0.004,2.382-0.016,3.577-0.027C165.346,394.617,166.678,394.604,167.998,394.604z
				"/>
		</g>
		<g>
			<path fill="#FFFFFF" d="M200.876,370.768c5.407,0,12.753,3.438,12.896,12.146c0.106,8.775-6.876,12.751-13.003,12.751
				c-5.872,0-13.076-3.832-13.076-12.214c0-7.773,6.482-12.682,13.147-12.682H200.876z M200.306,372.632
				c-4.299,0-6.554,4.549-6.554,10.136c0,5.731,2.687,11.067,7.484,11.067c5.086,0,6.483-5.767,6.483-10.458
				c0-4.442-2.328-10.745-7.381-10.745H200.306L200.306,372.632z"/>
			<path fill="#FFFFFF" d="M200.771,395.991c-6.499,0-13.403-4.397-13.403-12.542c0-8.144,6.854-13.011,13.475-13.011
				c5.269,0,13.11,3.321,13.257,12.468c0.045,3.662-1.147,6.826-3.442,9.154C208.188,394.558,204.586,395.991,200.771,395.991z
				 M200.876,371.095c-6.337,0-12.852,4.621-12.852,12.354c0,7.719,6.566,11.885,12.747,11.885c3.588,0,7.107-1.396,9.419-3.735
				c2.172-2.202,3.296-5.204,3.255-8.682C213.305,374.244,205.854,371.095,200.876,371.095z M201.236,394.164
				c-5.131,0-7.814-5.733-7.814-11.396c0-6.357,2.704-10.465,6.884-10.465h0.035c5.316,0,7.709,6.478,7.709,11.075
				C208.049,385.906,207.557,394.164,201.236,394.164z M200.306,372.959c-3.784,0-6.225,3.851-6.225,9.809
				c0,5.336,2.458,10.739,7.156,10.739c5.71,0,6.153-7.754,6.153-10.131c0-4.2-2.239-10.418-7.051-10.418L200.306,372.959
				L200.306,372.959L200.306,372.959z"/>
		</g>
		<g>
			<path fill="#FFFFFF" d="M216.211,371.843c1.434-0.215,6.198-0.715,10.315-0.715c6.841,0,9.601,2.256,9.601,6.017
				c0,3.33-2.937,5.157-5.268,5.91l-0.035,0.072c0.787,1.54,3.403,5.553,4.837,7.63c2.326,3.332,2.719,3.725,3.041,4.228
				l-0.532,0.572c-4.372,0-5.949-1.108-7.38-2.791c-1.473-1.683-3.8-5.337-5.877-8.992l0.072-0.252
				c3.368-0.643,5.479-2.076,5.479-5.516c0-3.939-2.866-4.906-6.339-4.765v10.315c0,4.908-0.034,7.272,0.073,8.847l3.438,1.146
				l-0.326,1.433c-1.896,0-3.795-0.036-5.767-0.036c-2.002,0-4.011,0.036-6.051,0.036l0.432-1.433l2.612-1.108
				c0.076-1.254,0.253-4.157,0.253-8.848v-9.707l-3.117-0.573L216.211,371.843z"/>
			<path fill="#FFFFFF" d="M238.312,395.885h-0.14c-4.312,0-6.062-1.068-7.63-2.91c-1.362-1.559-3.629-5.026-5.912-9.041
				l-0.067-0.12l0.167-0.577l0.198-0.038c3.656-0.7,5.213-2.254,5.213-5.195c0-3.034-1.71-4.448-5.38-4.448
				c-0.099,0-0.201,0-0.302,0.002l-0.003,12.934c-0.008,2.84-0.008,4.479,0.059,5.673l3.51,1.171l-0.445,1.978h-0.265
				c-0.938,0-1.882-0.011-2.831-0.02c-1.935-0.018-3.933-0.018-5.931,0c-1.014,0.01-2.033,0.02-3.057,0.02h-0.444l0.602-2.003
				l2.569-1.09c0.079-1.378,0.239-4.178,0.239-8.625v-9.431l-3.229-0.597l0.735-2.016l0.194-0.031
				c1.283-0.192,6.119-0.719,10.365-0.719c6.589,0,9.931,2.136,9.931,6.346c0,3.838-3.645,5.561-5.189,6.117
				c0.901,1.648,3.251,5.258,4.662,7.306c1.493,2.137,2.202,3.077,2.58,3.583c0.223,0.298,0.353,0.469,0.47,0.652l0.139,0.215
				L238.312,395.885z M225.305,383.792c2.229,3.904,4.416,7.248,5.733,8.756c1.237,1.451,2.62,2.653,6.988,2.681l0.262-0.278
				c-0.079-0.113-0.174-0.237-0.303-0.406c-0.381-0.507-1.092-1.455-2.592-3.599c-1.48-2.147-4.065-6.111-4.859-7.67l-0.076-0.147
				l0.17-0.343l0.132-0.043c1.18-0.381,5.037-1.914,5.037-5.596c0-3.829-3.029-5.691-9.271-5.691c-4.019,0-8.568,0.477-10.074,0.686
				l-0.337,0.921l3.001,0.552v9.979c0,4.538-0.163,7.371-0.243,8.729l-0.019,0.342l-2.66,1.13l-0.262,0.861
				c0.877-0.003,1.743-0.011,2.611-0.018c2.005-0.02,4.003-0.02,5.944,0c0.858,0.007,1.711,0.018,2.562,0.019l0.201-0.888
				l-3.368-1.122l-0.016-0.219c-0.082-1.234-0.079-2.904-0.075-5.937l0.003-13.562l0.318-0.014c0.214-0.01,0.431-0.013,0.642-0.013
				c4.003,0,6.036,1.718,6.036,5.104C230.795,381.209,229.101,383.001,225.305,383.792z"/>
		</g>
		<g>
			<path fill="#FFFFFF" d="M257.945,371.414c1.179-0.181,3.009-0.466,3.799-0.538l0.25,0.252c-0.143,1.146-0.934,5.517-1.219,6.627
				l-0.786,0.249c-0.287-0.645-1.651-3.293-2.149-4.727l-4.729,0.214v8.347c0,8.847,0.144,9.635,0.215,10.531l4.262,1.181
				l-0.461,1.432c-2.188,0-4.337-0.037-6.52-0.037c-2.295,0-4.55,0.037-6.88,0.037l0.393-1.468l3.551-1.148
				c0.105-1.075,0.105-2.542,0.105-9.349v-9.526l-4.443-0.252c-0.858,1.399-2.04,3.116-3.042,4.335l-0.825,0.18
				c-0.072-0.97,0-5.66,0.216-6.664l0.321-0.213c0.643,0,2.76,0.359,3.511,0.537L257.945,371.414L257.945,371.414L257.945,371.414z"
				/>
			<path fill="#FFFFFF" d="M257.362,395.312h-0.238c-1.093,0-2.181-0.011-3.267-0.02c-2.216-0.019-4.444-0.017-6.665,0
				c-1.151,0.009-2.301,0.02-3.47,0.02h-0.429l0.553-2.056l3.509-1.133c0.087-1.055,0.087-2.715,0.087-9.104V373.8l-3.935-0.222
				c-0.761,1.223-1.906,2.918-2.966,4.205l-0.073,0.086l-1.305,0.286l-0.028-0.378c-0.08-1.013,0-5.736,0.22-6.755l0.026-0.129
				l0.52-0.343h0.099c0.687,0,2.764,0.354,3.55,0.536h14.396l0.443-0.072c1.17-0.179,2.629-0.4,3.327-0.464l0.151-0.014l0.473,0.474
				l-0.02,0.158c-0.147,1.176-0.941,5.563-1.226,6.666l-0.045,0.177l-1.242,0.394l-0.119-0.268
				c-0.076-0.172-0.228-0.488-0.421-0.884c-0.507-1.04-1.251-2.573-1.655-3.641l-4.174,0.192v8.033
				c0,8.052,0.121,9.436,0.194,10.261l0.004,0.014l4.371,1.213L257.362,395.312z M250.604,394.617c1.092,0,2.176,0.01,3.263,0.021
				c1.003,0.007,2.005,0.016,3.018,0.019l0.287-0.882l-4.157-1.151l-0.038-0.464c-0.076-0.893-0.194-2.238-0.194-10.32v-8.661
				l5.287-0.241l0.08,0.231c0.361,1.028,1.17,2.696,1.707,3.799c0.12,0.248,0.227,0.465,0.306,0.635l0.337-0.105
				c0.298-1.26,0.969-4.964,1.147-6.252l-0.028-0.027c-0.722,0.075-2.051,0.281-3.133,0.443l-0.492,0.076l-14.521,0.003
				l-0.037-0.009c-0.738-0.177-2.649-0.497-3.344-0.525l-0.119,0.079c-0.167,1.062-0.239,4.67-0.202,6.062l0.333-0.071
				c1.067-1.311,2.218-3.024,2.945-4.209l0.107-0.169l4.945,0.281v9.837c0,6.863,0,8.291-0.11,9.384l-0.023,0.213l-3.581,1.157
				l-0.239,0.882c1.021-0.001,2.032-0.012,3.034-0.018C248.324,394.625,249.46,394.617,250.604,394.617z"/>
		</g>
		<g>
			<path fill="#FFFFFF" d="M264.036,371.414c1.684,0,3.366,0.036,5.05,0.036c1.755,0,3.511-0.036,5.229-0.036l-0.394,1.539
				l-1.973,1.04c-0.035,3.724-0.035,7.341-0.035,12.679c0,1.827,0.284,2.865,0.859,3.726c1.036,1.435,2.687,2.294,5.014,2.294
				c2.043,0,3.867-0.897,4.98-2.4c0.681-0.967,1.146-2.364,1.146-4.298c-0.071-5.802-0.071-9.026-0.215-11.998l-2.471-1.075
				l0.356-1.505c1.184,0,2.366,0.037,3.546,0.037c1.544,0,3.084-0.037,4.586-0.037l-0.25,1.541l-2.974,1.145
				c-0.072,0.647-0.179,1.041-0.288,11.786c0,1.896-0.356,3.727-1.215,5.3c-1.4,2.615-4.408,4.479-8.349,4.479
				c-3.511,0-7.413-1.11-9.203-4.55c-0.717-1.327-0.86-2.865-0.86-4.443c-0.035-5.517,0-9.848-0.11-12.75l-2.937-1.076
				L264.036,371.414z"/>
			<path fill="#FFFFFF" d="M276.645,395.991c-4.471,0-7.933-1.723-9.497-4.725c-0.789-1.462-0.896-3.142-0.896-4.594
				c-0.012-1.729-0.015-3.346-0.019-4.836c-0.009-3.186-0.017-5.726-0.081-7.683l-3.033-1.11l0.686-1.956h0.234
				c0.844,0,1.684,0.007,2.528,0.017c1.72,0.018,3.449,0.018,5.16,0c0.87-0.009,1.737-0.017,2.593-0.017h0.424l-0.536,2.09
				l-1.922,1.015c-0.035,3.654-0.035,7.185-0.035,12.48c0,1.659,0.229,2.687,0.802,3.543c1.029,1.42,2.626,2.145,4.741,2.145
				c1.934,0,3.652-0.825,4.717-2.267c0.715-1.017,1.082-2.401,1.082-4.102l-0.039-3.693c-0.04-3.516-0.064-5.878-0.163-8.087
				l-2.537-1.103l0.48-2.023h0.258c0.595,0,1.188,0.009,1.779,0.018c1.361,0.021,2.729,0.016,4.086,0
				c0.761-0.01,1.518-0.018,2.267-0.018h0.385l-0.344,2.106l-2.962,1.142c-0.068,0.614-0.167,1.918-0.261,11.556
				c0,2.089-0.426,3.926-1.256,5.452C283.724,394.251,280.495,395.991,276.645,395.991z M263.95,372.649l2.842,1.039l0.008,0.221
				c0.075,1.997,0.08,4.613,0.091,7.925c0,1.492,0.007,3.107,0.02,4.837c0,1.37,0.095,2.951,0.819,4.287
				c1.981,3.809,6.437,4.377,8.916,4.377c3.606,0,6.619-1.608,8.057-4.304c0.782-1.433,1.18-3.166,1.18-5.146
				c0.1-10.2,0.202-11.079,0.277-11.723l0.035-0.299l2.981-1.148l0.159-0.973c-0.62,0.002-1.246,0.011-1.874,0.018
				c-1.362,0.016-2.735,0.021-4.102,0c-0.503-0.009-1.008-0.016-1.509-0.018l-0.234,0.984l2.406,1.046l0.008,0.202
				c0.11,2.281,0.135,4.682,0.179,8.316l0.041,3.695c0,1.843-0.41,3.353-1.208,4.491c-1.191,1.616-3.104,2.54-5.249,2.54
				c-2.304,0-4.129-0.841-5.279-2.428c-0.659-0.986-0.925-2.118-0.925-3.917c0-5.391,0-8.956,0.039-12.683v-0.196l2.017-1.064
				l0.25-0.988c-0.715,0.002-1.437,0.01-2.159,0.018c-1.72,0.018-3.447,0.019-5.175,0c-0.762-0.008-1.526-0.018-2.291-0.018
				L263.95,372.649z"/>
		</g>
		<g>
			<path fill="#FFFFFF" d="M299.895,394.981c-1.652,0-3.369-0.036-5.051-0.036c-1.47,0-2.938,0.036-4.403,0.036l0.211-1.468
				l2.687-1.363c0.144-1.324,0.431-6.695,0.608-16.907c-1.325-1.791-2.073-1.863-3.867-2.471l0.572-1.396l7.023-0.18
				c0.073,0.252,0.609,1.109,1.468,2.185c4.584,5.445,7.596,9.137,12,13.934h0.067c0-1.612-0.179-11.534-0.212-13.181l-3.834-1.363
				l0.395-1.36c1.576,0,3.188,0.036,4.691,0.036c1.436,0,2.865-0.036,4.262-0.036l-0.357,1.432l-2.398,1.291
				c0,1.36-0.393,11.139-0.464,17.765c0,1.148-0.11,2.831-0.184,3.547l-1.035,0.285c-3.117-2.329-9.348-9.492-16.084-18.197h-0.107
				c-0.075,5.338-0.075,13.324,0.284,14.649l4.049,1.399L299.895,394.981z"/>
			<path fill="#FFFFFF" d="M312.004,396.092l-0.127-0.095c-2.933-2.191-8.768-8.766-15.676-17.651
				c-0.071,5.933-0.019,12.12,0.25,13.592l4.152,1.435l-0.445,1.939h-0.262c-0.822,0-1.66-0.011-2.501-0.02
				c-1.585-0.018-3.172-0.019-4.75,0c-0.737,0.01-1.473,0.02-2.207,0.02h-0.382l0.295-2.014l2.679-1.355
				c0.135-1.454,0.408-6.491,0.587-16.59c-1.071-1.422-1.707-1.631-3.066-2.075l-0.908-0.304l0.786-1.919l7.489-0.191l0.068,0.246
				c0.048,0.165,0.507,0.941,1.412,2.069c0.833,0.988,1.616,1.924,2.37,2.821c3.205,3.82,5.769,6.876,9.108,10.542
				c-0.028-2.731-0.163-10.261-0.204-12.174l-3.909-1.389l0.548-1.896h0.246c0.798,0,1.604,0.007,2.402,0.018
				c1.533,0.017,2.994,0.019,4.444,0c0.71-0.011,1.413-0.018,2.106-0.018h0.42l-0.49,1.978l-2.358,1.268
				c-0.012,0.635-0.058,2.061-0.119,3.959c-0.118,3.725-0.297,9.353-0.344,13.611c0,1.139-0.107,2.81-0.182,3.577l-0.023,0.222
				L312.004,396.092z M295.559,377.209h0.595l0.095,0.127c6.979,9.019,12.896,15.735,15.894,18.039l0.664-0.184
				c0.071-0.812,0.158-2.287,0.158-3.29c0.044-4.269,0.227-9.901,0.349-13.628c0.068-2.124,0.118-3.659,0.118-4.137v-0.198
				l2.445-1.315l0.218-0.882c-0.555,0.002-1.114,0.011-1.674,0.018c-1.459,0.02-2.924,0.018-4.464,0
				c-0.71-0.007-1.433-0.015-2.145-0.018l-0.243,0.828l3.756,1.333l0.008,0.226c0.035,1.612,0.211,11.566,0.211,13.189v0.328h-0.472
				l-0.167-0.106c-3.605-3.925-6.267-7.1-9.636-11.116c-0.753-0.895-1.535-1.831-2.378-2.826c-0.658-0.828-1.199-1.612-1.425-2.062
				l-6.588,0.169l-0.357,0.873l0.239,0.079c1.43,0.469,2.218,0.727,3.454,2.397l0.068,0.09l-0.003,0.112
				c-0.187,10.659-0.48,15.741-0.609,16.936l-0.019,0.179l-2.695,1.363l-0.136,0.925c0.604-0.002,1.215-0.011,1.819-0.018
				c1.581-0.02,3.172-0.018,4.761,0c0.753,0.007,1.502,0.018,2.235,0.019l0.198-0.854l-3.932-1.356l-0.044-0.169
				c-0.454-1.664-0.33-12.571-0.299-14.739V377.209L295.559,377.209z"/>
		</g>
		<g>
			<path fill="#FFFFFF" d="M318.521,371.414c1.717,0,3.473,0,5.195,0h8.774c0.321-0.072,3.331-0.466,4.078-0.503l0.146,0.178
				c-0.035,0.969-0.536,4.623-0.858,5.839l-0.858,0.322c-0.465-0.714-1.828-2.938-2.256-3.833l-6.233,0.358v7.988
				c3.081,0,6.734-0.287,9.275-0.536l0.287,0.536c-0.106,0.502-1.79,2.721-2.47,2.721c-0.504,0-5.623-0.465-7.091-0.465
				c0,1.973,0,6.162,0.144,8.599l6.193,0.359c1.252-1.648,2.868-3.761,4.12-4.943l1.005,0.535c-0.071,0.717-1.111,5.661-1.469,6.484
				c-2.294-0.108-4.228-0.108-6.342-0.108h-6.66c-1.863,0-3.873,0.037-5.769,0.037l0.394-1.36l2.83-1.182
				c0.105-0.502,0.211-3.726,0.211-9.778v-8.776l-3.114-1.075L318.521,371.414z"/>
			<path fill="#FFFFFF" d="M336.713,395.393l-0.223-0.011c-2.286-0.107-4.249-0.107-6.328-0.107H323.5
				c-0.927,0-1.888,0.008-2.854,0.018c-0.977,0.01-1.961,0.02-2.913,0.02h-0.441l0.56-1.932l2.806-1.172
				c0.095-0.833,0.185-4.015,0.185-9.547v-8.541l-3.201-1.104l0.641-1.928h14.174c0.504-0.099,3.388-0.47,4.1-0.503l0.17-0.009
				l0.322,0.405l-0.004,0.122c-0.035,0.977-0.533,4.644-0.872,5.91l-0.039,0.165l-1.269,0.475l-0.14-0.221
				c-0.435-0.667-1.659-2.663-2.18-3.671l-5.705,0.327v7.349c3.235-0.021,6.95-0.343,8.915-0.535l0.221-0.021l0.442,0.837
				l-0.023,0.118c-0.109,0.516-1.849,2.982-2.792,2.982c-0.188,0-0.865-0.053-2.055-0.144c-1.561-0.12-3.638-0.283-4.707-0.315
				c0,2.012,0.008,5.631,0.123,7.951l5.73,0.331c1.198-1.573,2.795-3.659,4.049-4.844l0.175-0.16l1.403,0.752l-0.022,0.217
				c-0.074,0.763-1.12,5.72-1.494,6.581L336.713,395.393z M323.502,394.617h6.66c2.015,0,3.917,0,6.117,0.1
				c0.365-1.119,1.166-4.892,1.333-5.964l-0.587-0.316c-1.23,1.209-2.773,3.24-3.914,4.739l-0.107,0.14l-6.662-0.385l-0.018-0.291
				c-0.145-2.445-0.145-6.613-0.145-8.616v-0.328h0.329c0.939,0,3.339,0.188,5.091,0.323c0.981,0.076,1.828,0.143,2.002,0.143
				c0.428-0.014,1.86-1.78,2.115-2.364l-0.118-0.219c-2.097,0.201-5.864,0.517-9.09,0.517h-0.329v-8.626l6.762-0.387l0.094,0.199
				c0.375,0.782,1.53,2.688,2.093,3.575l0.45-0.168c0.303-1.265,0.727-4.338,0.798-5.429c-0.987,0.08-3.554,0.42-3.814,0.479
				l-0.071,0.01h-13.737l-0.284,0.861l3.027,1.047v9.008c0,5.354-0.088,9.219-0.22,9.847l-0.038,0.169l-2.843,1.188l-0.231,0.788
				c0.814-0.001,1.647-0.01,2.471-0.018C321.609,394.625,322.574,394.617,323.502,394.617z"/>
		</g>
	</g>
	<g>
		<g>
			<g>
				<path fill="#D2AB67" d="M128.642,415.073c0-2.333,0-2.764-0.034-3.255c-0.035-0.525-0.171-0.768-0.735-0.877
					c-0.135-0.031-0.426-0.043-0.665-0.043c-0.188,0-0.291-0.032-0.291-0.139c0-0.105,0.12-0.137,0.376-0.137
					c0.905,0,1.979,0.043,2.339,0.043c0.579,0,1.877-0.043,2.405-0.043c1.076,0,2.219,0.093,3.139,0.661
					c0.479,0.29,1.16,1.075,1.16,2.104c0,1.138-0.529,2.181-2.251,3.439c1.517,1.723,2.697,3.088,3.702,4.041
					c0.956,0.891,1.655,0.999,1.911,1.042c0.188,0.033,0.343,0.047,0.479,0.047c0.135,0,0.203,0.045,0.203,0.123
					c0,0.121-0.12,0.152-0.323,0.152h-1.622c-0.957,0-1.383-0.076-1.827-0.292c-0.732-0.354-1.381-1.075-2.336-2.257
					c-0.684-0.846-1.466-1.89-1.69-2.121c-0.085-0.09-0.188-0.107-0.306-0.107l-1.486-0.032c-0.085,0-0.136,0.032-0.136,0.122v0.215
					c0,1.43,0,2.643,0.085,3.287c0.051,0.444,0.153,0.782,0.667,0.844c0.255,0.035,0.631,0.063,0.837,0.063
					c0.136,0,0.204,0.044,0.204,0.121c0,0.108-0.12,0.152-0.341,0.152c-0.992,0-2.253-0.044-2.509-0.044
					c-0.325,0-1.4,0.044-2.083,0.044c-0.22,0-0.343-0.044-0.343-0.152c0-0.077,0.07-0.121,0.275-0.121
					c0.256,0,0.458-0.032,0.614-0.063c0.341-0.059,0.427-0.398,0.494-0.844c0.086-0.645,0.086-1.857,0.086-3.271v-2.701h0.003
					V415.073z M130.657,416.289c0,0.169,0.035,0.229,0.153,0.277c0.36,0.105,0.87,0.152,1.298,0.152c0.682,0,0.905-0.061,1.21-0.263
					c0.512-0.337,1.008-1.043,1.008-2.303c0-2.183-1.604-2.81-2.612-2.81c-0.428,0-0.734,0.017-0.904,0.061
					c-0.12,0.03-0.153,0.092-0.153,0.215V416.289z"/>
				<path fill="#D2AB67" d="M140.06,422.561h-1.622c-0.984,0-1.465-0.079-1.972-0.325c-0.766-0.368-1.425-1.08-2.451-2.347
					c-0.291-0.36-0.598-0.756-0.876-1.109c-0.349-0.446-0.68-0.87-0.794-0.991c-0.001,0-0.018-0.006-0.07-0.006l-1.294-0.028v0.006
					c0,1.406,0,2.621,0.084,3.245c0.052,0.454,0.132,0.53,0.378,0.561c0.246,0.031,0.607,0.061,0.797,0.061
					c0.367,0,0.533,0.224,0.533,0.449c0,0.146-0.066,0.482-0.671,0.482c-0.661,0-1.44-0.021-1.964-0.034
					c-0.264-0.01-0.461-0.015-0.545-0.015c-0.13,0-0.385,0.009-0.686,0.017c-0.445,0.015-0.993,0.032-1.399,0.032
					c-0.604,0-0.67-0.337-0.67-0.482c0-0.106,0.042-0.449,0.602-0.449c0.245,0,0.431-0.034,0.551-0.058
					c0.101-0.018,0.163-0.114,0.234-0.571c0.081-0.616,0.081-1.823,0.081-3.223v-2.704c0-2.332,0-2.754-0.035-3.232
					c-0.027-0.427-0.093-0.504-0.466-0.576c-0.107-0.024-0.362-0.041-0.605-0.041c-0.558,0-0.618-0.326-0.618-0.466
					c0-0.309,0.237-0.466,0.703-0.466c0.557,0,1.18,0.02,1.661,0.032c0.299,0.009,0.541,0.017,0.678,0.017
					c0.294,0,0.775-0.012,1.246-0.025c0.454-0.012,0.901-0.023,1.163-0.023c1.067,0,2.297,0.084,3.311,0.709
					c0.633,0.387,1.318,1.301,1.318,2.384c0,1.293-0.632,2.351-2.101,3.489l0.337,0.384c1.255,1.425,2.246,2.55,3.11,3.37
					c0.862,0.803,1.49,0.914,1.727,0.955c0.182,0.029,0.317,0.044,0.44,0.044c0.366,0,0.533,0.225,0.533,0.45
					C140.713,422.259,140.628,422.561,140.06,422.561z M132.286,417.127c0.155,0,0.365,0.025,0.539,0.213
					c0.136,0.141,0.444,0.536,0.835,1.035c0.277,0.354,0.583,0.744,0.869,1.102c0.961,1.189,1.571,1.852,2.225,2.167
					c0.364,0.176,0.705,0.261,1.684,0.261h0.229c-0.315-0.164-0.688-0.415-1.101-0.799c-0.889-0.842-1.889-1.978-3.154-3.416
					l-0.81-0.92l0.291-0.211c1.866-1.363,2.117-2.373,2.117-3.176c0-0.889-0.601-1.577-1.003-1.823
					c-0.876-0.539-1.992-0.614-2.968-0.614c-0.258,0-0.696,0.014-1.148,0.025c-0.475,0.012-0.961,0.023-1.259,0.023
					c-0.14,0-0.39-0.006-0.696-0.014c-0.088-0.004-0.182-0.007-0.281-0.01c0.19,0.209,0.258,0.49,0.281,0.826
					c0.035,0.502,0.035,0.926,0.035,3.276v2.706c0,1.419,0,2.648-0.089,3.314c-0.037,0.229-0.086,0.547-0.248,0.79
					c0.091-0.003,0.179-0.005,0.262-0.009c0.306-0.011,0.568-0.018,0.703-0.018c0.087,0,0.291,0.006,0.561,0.013
					c0.16,0.005,0.339,0.009,0.531,0.015c-0.213-0.256-0.252-0.595-0.277-0.797c-0.088-0.662-0.088-1.898-0.088-3.326v-0.214
					c0-0.267,0.192-0.45,0.465-0.45L132.286,417.127C132.285,417.127,132.285,417.127,132.286,417.127z M132.109,417.045
					c-0.524,0-1.042-0.06-1.393-0.165c-0.351-0.134-0.388-0.401-0.388-0.591v-4.67c0-0.375,0.25-0.496,0.399-0.533
					c0.186-0.051,0.482-0.07,0.987-0.07c1.415,0,2.941,0.98,2.941,3.138c0,1.579-0.722,2.294-1.154,2.58
					C133.118,416.98,132.819,417.045,132.109,417.045z M130.984,416.273c0.277,0.07,0.701,0.115,1.124,0.115
					c0.651,0,0.797-0.056,1.032-0.206c0.318-0.208,0.855-0.756,0.855-2.029c0-1.96-1.434-2.481-2.282-2.481
					c-0.136,0-0.512,0-0.731,0.034v4.567H130.984z"/>
			</g>
			<g>
				<path fill="#D2AB67" d="M141.531,415.073c0-2.333,0-2.764-0.035-3.255c-0.035-0.525-0.17-0.768-0.734-0.877
					c-0.136-0.031-0.426-0.043-0.665-0.043c-0.188,0-0.291-0.032-0.291-0.139c0-0.105,0.12-0.137,0.376-0.137
					c0.459,0,0.956,0.014,1.381,0.014c0.444,0.016,0.838,0.032,1.078,0.032c0.546,0,3.941,0,4.266-0.015
					c0.324-0.031,0.599-0.061,0.735-0.091c0.083-0.018,0.185-0.063,0.272-0.063c0.083,0,0.103,0.063,0.103,0.138
					c0,0.108-0.088,0.292-0.135,1.001c-0.02,0.152-0.053,0.827-0.088,1.014c-0.015,0.074-0.048,0.168-0.17,0.168
					c-0.119,0-0.152-0.077-0.152-0.215c0-0.107-0.02-0.365-0.104-0.553c-0.12-0.276-0.289-0.461-1.144-0.551
					c-0.288-0.032-2.082-0.062-2.423-0.062c-0.085,0-0.12,0.047-0.12,0.152v3.889c0,0.107,0.018,0.167,0.12,0.167
					c0.374,0,2.338,0,2.73-0.03c0.411-0.031,0.667-0.076,0.82-0.229c0.12-0.123,0.189-0.201,0.273-0.201
					c0.067,0,0.12,0.031,0.12,0.122s-0.068,0.337-0.136,1.119c-0.019,0.308-0.067,0.924-0.067,1.028c0,0.123,0,0.293-0.155,0.293
					c-0.12,0-0.152-0.062-0.152-0.14c-0.018-0.153-0.018-0.353-0.068-0.552c-0.085-0.307-0.323-0.536-0.956-0.598
					c-0.325-0.034-2.013-0.047-2.423-0.047c-0.086,0-0.104,0.062-0.104,0.153v1.215c0,0.522-0.017,1.935,0,2.38
					c0.035,1.061,0.309,1.291,2.051,1.291c0.444,0,1.158,0,1.602-0.184c0.444-0.186,0.649-0.508,0.767-1.137
					c0.035-0.173,0.068-0.232,0.188-0.232c0.136,0,0.136,0.123,0.136,0.278c0,0.354-0.136,1.398-0.221,1.705
					c-0.12,0.399-0.275,0.399-0.923,0.399c-1.279,0-2.218-0.032-2.951-0.045c-0.735-0.031-1.263-0.044-1.775-0.044
					c-0.19,0-0.564,0-0.973,0.015c-0.393,0-0.837,0.03-1.178,0.03c-0.221,0-0.344-0.044-0.344-0.152c0-0.077,0.07-0.121,0.275-0.121
					c0.256,0,0.459-0.032,0.614-0.062c0.342-0.061,0.427-0.4,0.495-0.846c0.085-0.645,0.085-1.857,0.085-3.271v-2.712l0,0V415.073z"
					/>
				<path fill="#D2AB67" d="M147.283,422.607c-1.011,0-1.812-0.02-2.464-0.037l-0.494-0.01c-0.737-0.032-1.26-0.047-1.767-0.047
					c-0.002,0-0.004,0-0.004,0c-0.186,0-0.556,0-0.957,0.016c-0.211,0-0.424,0.011-0.628,0.018
					c-0.201,0.008-0.394,0.015-0.562,0.015c-0.605,0-0.67-0.337-0.67-0.481c0-0.107,0.042-0.45,0.603-0.45
					c0.242,0,0.43-0.033,0.55-0.056c0.099-0.018,0.163-0.115,0.234-0.572c0.08-0.617,0.08-1.822,0.08-3.223v-2.704
					c0-2.332,0-2.753-0.033-3.231c-0.029-0.428-0.094-0.506-0.467-0.577c-0.106-0.026-0.362-0.041-0.604-0.041
					c-0.559,0-0.618-0.325-0.618-0.466c0-0.311,0.236-0.468,0.703-0.468c0.234,0,0.48,0.008,0.723,0.011
					c0.227,0.004,0.45,0.009,0.659,0.009l0.213,0.007c0.354,0.012,0.663,0.023,0.862,0.023c2.462,0,4.052-0.006,4.251-0.016
					c0.289-0.029,0.546-0.056,0.678-0.084c0.035-0.006,0.059-0.015,0.082-0.021c0.073-0.021,0.163-0.049,0.263-0.049
					c0.213,0,0.432,0.146,0.432,0.468c0,0.068-0.015,0.132-0.031,0.211c-0.029,0.132-0.075,0.354-0.108,0.81
					c-0.008,0.066-0.016,0.187-0.025,0.322c-0.02,0.269-0.041,0.604-0.065,0.729c-0.089,0.405-0.399,0.438-0.494,0.438
					c-0.08,0-0.48-0.027-0.48-0.543c0-0.105-0.02-0.301-0.071-0.416c-0.064-0.148-0.123-0.283-0.882-0.365
					c-0.227-0.023-1.587-0.051-2.18-0.057v3.551c1.362-0.002,2.266-0.014,2.498-0.031c0.269-0.021,0.524-0.051,0.612-0.135
					c0.151-0.156,0.284-0.296,0.504-0.296c0.261,0,0.45,0.192,0.45,0.451c0,0.041-0.009,0.107-0.028,0.213
					c-0.025,0.153-0.067,0.431-0.114,0.935c-0.008,0.135-0.024,0.344-0.037,0.537c-0.018,0.213-0.031,0.409-0.031,0.463
					c0,0.56-0.339,0.62-0.483,0.62c-0.282,0-0.479-0.192-0.479-0.468l-0.013-0.117c-0.007-0.109-0.017-0.229-0.047-0.353
					c-0.026-0.093-0.08-0.296-0.668-0.354c-0.26-0.028-1.539-0.041-2.167-0.046l-0.002,1.673c-0.005,0.621-0.009,1.42,0.002,1.736
					c0.027,0.786,0.033,0.974,1.723,0.974c0.409,0,1.093,0,1.479-0.159c0.282-0.117,0.455-0.293,0.568-0.894
					c0.028-0.128,0.103-0.5,0.512-0.5c0.211,0,0.465,0.105,0.465,0.605c0,0.382-0.139,1.454-0.234,1.794
					C148.33,422.607,147.937,422.607,147.283,422.607z M142.556,421.857c0.514,0,1.047,0.016,1.788,0.047l0.49,0.012
					c0.649,0.016,1.441,0.035,2.449,0.035c0.246,0,0.502,0,0.552-0.035l0,0c0,0,0.023-0.023,0.054-0.131
					c0.031-0.109,0.07-0.334,0.105-0.586c-0.14,0.158-0.316,0.278-0.533,0.368c-0.505,0.208-1.242,0.208-1.73,0.208
					c-1.744,0-2.333-0.231-2.379-1.607c-0.012-0.316-0.005-1.129-0.002-1.762l0.002-1.842c0-0.357,0.232-0.483,0.432-0.483
					c0.29,0,2.095,0.015,2.455,0.047c0.479,0.046,0.82,0.19,1.031,0.437c0.004-0.057,0.006-0.112,0.01-0.158
					c0.023-0.268,0.044-0.473,0.067-0.633c-0.23,0.114-0.497,0.143-0.79,0.164c-0.333,0.028-1.682,0.034-2.756,0.034
					c-0.075,0-0.447-0.026-0.447-0.498v-3.888c0-0.33,0.224-0.48,0.447-0.48c0.343,0,2.143,0.033,2.459,0.062
					c0.701,0.076,1.066,0.217,1.286,0.524c0.002-0.041,0.006-0.074,0.01-0.098c0.023-0.325,0.052-0.55,0.082-0.702
					c-0.13,0.025-0.352,0.052-0.698,0.084c-0.304,0.015-2.824,0.018-4.297,0.018c-0.205,0-0.521-0.012-0.888-0.023l-0.201-0.008
					c-0.004,0-0.01,0-0.013,0c0.193,0.208,0.263,0.494,0.284,0.832c0.035,0.503,0.035,0.926,0.035,3.277v2.704
					c0,1.421,0,2.649-0.089,3.314c-0.037,0.228-0.082,0.539-0.24,0.779c0.018,0,0.034,0,0.052,0
					C141.984,421.857,142.366,421.857,142.556,421.857z"/>
			</g>
			<g>
				<path fill="#D2AB67" d="M151.381,422.049c-0.273-0.108-0.323-0.186-0.323-0.522c0-0.847,0.067-1.767,0.085-2.013
					c0.018-0.231,0.067-0.4,0.204-0.4c0.154,0,0.17,0.138,0.17,0.261c0,0.201,0.067,0.524,0.155,0.784
					c0.374,1.137,1.381,1.551,2.441,1.551c1.536,0,2.286-0.936,2.286-1.75c0-0.752-0.255-1.459-1.672-2.457l-0.783-0.554
					c-1.879-1.321-2.528-2.396-2.528-3.64c0-1.689,1.572-2.905,3.943-2.905c1.108,0,1.827,0.155,2.271,0.263
					c0.153,0.033,0.239,0.077,0.239,0.186c0,0.201-0.068,0.645-0.068,1.842c0,0.34-0.05,0.46-0.188,0.46
					c-0.12,0-0.173-0.091-0.173-0.277c0-0.138-0.083-0.612-0.443-1.011c-0.256-0.293-0.752-0.754-1.86-0.754
					c-1.263,0-2.031,0.66-2.031,1.58c0,0.708,0.391,1.244,1.81,2.214l0.476,0.32c2.065,1.399,2.8,2.46,2.8,3.916
					c0,0.892-0.376,1.951-1.605,2.673c-0.854,0.492-1.809,0.63-2.714,0.63C152.883,422.449,152.116,422.339,151.381,422.049z"/>
				<path fill="#D2AB67" d="M153.873,422.777c-1.085,0-1.868-0.125-2.614-0.424c-0.4-0.158-0.529-0.361-0.529-0.827
					c0-0.797,0.059-1.652,0.079-1.975c0.048-0.645,0.319-0.767,0.538-0.767c0.083,0,0.5,0.028,0.5,0.588
					c0,0.152,0.056,0.439,0.138,0.683c0.362,1.094,1.356,1.327,2.13,1.327c1.271,0,1.957-0.734,1.957-1.424
					c0-0.56-0.119-1.189-1.534-2.188l-0.782-0.552c-1.869-1.317-2.666-2.484-2.666-3.911c0-1.901,1.757-3.23,4.27-3.23
					c1.093,0,1.83,0.143,2.349,0.27c0.402,0.081,0.49,0.318,0.49,0.504c0,0.062-0.007,0.149-0.015,0.272
					c-0.02,0.275-0.053,0.734-0.053,1.573c0,0.195,0,0.787-0.517,0.787c-0.086,0-0.5-0.029-0.5-0.604
					c0-0.064-0.062-0.463-0.36-0.793c-0.264-0.303-0.685-0.645-1.616-0.645c-1.035,0-1.703,0.492-1.703,1.254
					c0,0.529,0.256,0.978,1.666,1.939l0.477,0.321c2.144,1.453,2.943,2.588,2.943,4.188c0,0.718-0.229,2.054-1.766,2.958
					C155.964,422.555,155.022,422.777,153.873,422.777z M151.401,421.7c0.007,0,0.037,0.018,0.103,0.044
					c0.665,0.263,1.374,0.375,2.372,0.375c1.031,0,1.864-0.193,2.55-0.587c1.189-0.7,1.439-1.687,1.439-2.39
					c0-1.363-0.693-2.317-2.654-3.645l-0.478-0.322c-1.461-0.999-1.954-1.624-1.954-2.482c0-1.145,0.948-1.912,2.36-1.912
					c1.348,0,1.919,0.652,2.105,0.864c0.095,0.105,0.175,0.214,0.238,0.324c0.012-0.428,0.031-0.706,0.044-0.896
					c0.001-0.035,0.004-0.064,0.006-0.093c-0.48-0.118-1.163-0.249-2.174-0.249c-2.16,0-3.613,1.034-3.613,2.575
					c0,1.201,0.691,2.179,2.387,3.371l0.783,0.552c1.503,1.063,1.813,1.856,1.813,2.725c0,1.011-0.919,2.08-2.616,2.08
					c-1.314,0-2.287-0.589-2.698-1.621c-0.018,0.346-0.033,0.735-0.033,1.108C151.385,421.645,151.393,421.688,151.401,421.7
					L151.401,421.7z"/>
			</g>
			<g>
				<path fill="#D2AB67" d="M164.528,411.481l-2.542,0.061c-0.993,0.03-1.402,0.108-1.657,0.443
					c-0.171,0.231-0.256,0.418-0.289,0.539c-0.033,0.122-0.085,0.185-0.188,0.185c-0.119,0-0.154-0.076-0.154-0.246
					c0-0.246,0.326-1.646,0.36-1.765c0.05-0.202,0.103-0.293,0.203-0.293c0.136,0,0.309,0.155,0.735,0.186
					c0.496,0.046,1.143,0.075,1.707,0.075h6.758c0.545,0,0.922-0.043,1.177-0.075c0.258-0.047,0.393-0.077,0.461-0.077
					c0.12,0,0.136,0.092,0.136,0.323c0,0.321-0.051,1.382-0.051,1.783c-0.018,0.15-0.05,0.243-0.153,0.243
					c-0.135,0-0.17-0.076-0.19-0.305l-0.016-0.172c-0.035-0.398-0.496-0.829-2.015-0.858l-2.15-0.044v6.298
					c0,1.412,0,2.625,0.086,3.285c0.051,0.431,0.153,0.767,0.667,0.829c0.238,0.034,0.612,0.062,0.87,0.062
					c0.186,0,0.273,0.044,0.273,0.122c0,0.109-0.135,0.153-0.326,0.153c-1.124,0-2.202-0.044-2.68-0.044
					c-0.39,0-1.466,0.044-2.148,0.044c-0.221,0-0.34-0.044-0.34-0.153c0-0.078,0.068-0.122,0.273-0.122
					c0.258,0,0.46-0.032,0.612-0.062c0.343-0.06,0.444-0.399,0.495-0.845c0.088-0.645,0.088-1.859,0.088-3.271L164.528,411.481
					L164.528,411.481z"/>
				<path fill="#D2AB67" d="M168.229,422.561c-0.686,0-1.351-0.018-1.878-0.032c-0.337-0.009-0.615-0.017-0.803-0.017
					c-0.167,0-0.459,0.011-0.792,0.02c-0.447,0.015-0.967,0.029-1.356,0.029c-0.604,0-0.669-0.337-0.669-0.482
					c0-0.105,0.042-0.449,0.602-0.449c0.242,0,0.432-0.034,0.55-0.058c0.059-0.009,0.173-0.03,0.232-0.56
					c0.084-0.627,0.084-1.834,0.084-3.232v-5.964l-2.207,0.056c-0.924,0.029-1.241,0.099-1.405,0.313
					c-0.168,0.229-0.219,0.374-0.234,0.428c-0.104,0.371-0.361,0.427-0.504,0.427c-0.114,0-0.482-0.041-0.482-0.574
					c0-0.316,0.354-1.793,0.37-1.854c0.037-0.14,0.134-0.532,0.521-0.532c0.117,0,0.211,0.04,0.306,0.076
					c0.113,0.043,0.239,0.094,0.45,0.108c0.504,0.049,1.147,0.078,1.684,0.078h6.758c0.516,0,0.863-0.04,1.121-0.072l0.198-0.036
					c0.163-0.032,0.263-0.047,0.321-0.047c0.466,0,0.466,0.492,0.466,0.653c0,0.155-0.012,0.478-0.023,0.817
					c-0.015,0.366-0.031,0.759-0.031,0.965c-0.053,0.504-0.326,0.571-0.48,0.571c-0.469,0-0.504-0.455-0.516-0.607l-0.018-0.163
					c-0.021-0.246-0.477-0.539-1.692-0.562l-1.818-0.039v5.962c0,1.398,0,2.604,0.084,3.246c0.05,0.437,0.135,0.517,0.378,0.543
					c0.232,0.032,0.59,0.061,0.833,0.061c0.572,0,0.602,0.375,0.602,0.449C168.883,422.159,168.853,422.561,168.229,422.561z
					 M164.855,411.145v6.635c0,1.419,0,2.648-0.089,3.314c-0.021,0.184-0.06,0.527-0.243,0.79c0.074-0.003,0.143-0.005,0.213-0.008
					c0.343-0.009,0.642-0.019,0.812-0.019c0.193,0,0.477,0.009,0.822,0.018c0.103,0.001,0.207,0.006,0.319,0.009
					c-0.209-0.254-0.248-0.583-0.271-0.781c-0.089-0.677-0.089-1.901-0.089-3.323v-6.633l2.486,0.051
					c1.151,0.023,1.755,0.271,2.06,0.574c0-0.047,0.004-0.097,0.004-0.144c0.012-0.305,0.023-0.595,0.025-0.756
					c-0.004,0-0.006,0-0.009,0l-0.202,0.04c-0.294,0.035-0.684,0.082-1.236,0.082h-6.759c-0.555,0-1.222-0.031-1.736-0.079
					c-0.271-0.021-0.457-0.084-0.59-0.134c-0.032,0.105-0.12,0.504-0.202,0.887c0.343-0.352,0.845-0.427,1.804-0.453
					L164.855,411.145z"/>
			</g>
			<g>
				<path fill="#D2AB67" d="M174.035,418.223c-0.085,0-0.12,0.032-0.153,0.123l-0.922,2.197c-0.171,0.383-0.257,0.752-0.257,0.935
					c0,0.28,0.153,0.478,0.682,0.478h0.258c0.204,0,0.256,0.031,0.256,0.122c0,0.121-0.103,0.152-0.289,0.152
					c-0.547,0-1.281-0.044-1.81-0.044c-0.189,0-1.128,0.044-2.015,0.044c-0.221,0-0.324-0.031-0.324-0.152
					c0-0.093,0.068-0.122,0.203-0.122c0.153,0,0.394-0.016,0.529-0.032c0.783-0.092,1.108-0.613,1.449-1.384l4.284-9.646
					c0.203-0.443,0.308-0.612,0.478-0.612c0.153,0,0.255,0.137,0.426,0.491c0.412,0.847,3.141,7.111,4.235,9.445
					c0.647,1.383,1.144,1.598,1.5,1.674c0.256,0.046,0.513,0.061,0.717,0.061c0.135,0,0.22,0.016,0.22,0.123
					c0,0.121-0.152,0.152-0.785,0.152c-0.611,0-1.859,0-3.223-0.031c-0.308-0.016-0.513-0.016-0.513-0.123
					c0-0.092,0.068-0.121,0.238-0.136c0.12-0.034,0.24-0.169,0.153-0.354l-1.363-3.258c-0.038-0.076-0.085-0.107-0.173-0.107h-3.804
					L174.035,418.223L174.035,418.223z M177.519,417.455c0.083,0,0.103-0.045,0.083-0.091l-1.537-3.794
					c-0.015-0.062-0.035-0.138-0.083-0.138c-0.051,0-0.086,0.075-0.103,0.138l-1.57,3.779c-0.021,0.059,0,0.105,0.067,0.105H177.519
					L177.519,417.455z"/>
				<path fill="#D2AB67" d="M182.723,422.561c-0.613,0-1.864,0-3.231-0.032l-0.083-0.005c-0.318-0.013-0.752-0.035-0.752-0.445
					c0-0.174,0.077-0.381,0.421-0.448l-1.328-3.079h-3.598l-0.888,2.121c-0.168,0.377-0.23,0.694-0.23,0.806
					c0,0.067,0,0.151,0.354,0.151h0.258c0.482,0,0.583,0.244,0.583,0.449c0,0.146-0.06,0.482-0.617,0.482
					c-0.28,0-0.604-0.014-0.93-0.025c-0.312-0.012-0.62-0.023-0.877-0.023c-0.059,0-0.189,0.006-0.364,0.012
					c-0.4,0.014-1.038,0.037-1.65,0.037c-0.539,0-0.653-0.266-0.653-0.483c0-0.075,0.026-0.45,0.533-0.45
					c0.144,0,0.364-0.015,0.492-0.03c0.595-0.069,0.848-0.424,1.188-1.188l4.284-9.647c0.201-0.435,0.371-0.806,0.777-0.806
					c0.396,0,0.577,0.372,0.723,0.676c0.18,0.373,0.81,1.796,1.539,3.442c0.928,2.09,2.081,4.696,2.694,6.009
					c0.638,1.356,1.068,1.447,1.275,1.494c0.194,0.033,0.428,0.054,0.647,0.054c0.496,0,0.548,0.313,0.548,0.45
					C183.835,422.561,183.32,422.561,182.723,422.561z M179.71,421.879c0.792,0.015,1.539,0.023,2.131,0.025
					c-0.323-0.255-0.682-0.709-1.071-1.544c-0.616-1.317-1.771-3.925-2.701-6.021c-0.725-1.641-1.352-3.058-1.53-3.422
					c-0.056-0.119-0.099-0.196-0.128-0.245c-0.063,0.11-0.149,0.289-0.182,0.363l-4.282,9.644c-0.206,0.463-0.431,0.902-0.794,1.201
					c0.094-0.003,0.182-0.006,0.261-0.009c0.19-0.006,0.326-0.011,0.387-0.011c0.202,0,0.43,0.006,0.666,0.014
					c-0.072-0.134-0.091-0.278-0.091-0.393c0-0.263,0.113-0.68,0.283-1.069l0.92-2.19c0.08-0.209,0.234-0.325,0.455-0.325h3.806
					c0.217,0,0.384,0.108,0.471,0.302l1.368,3.264C179.743,421.594,179.753,421.744,179.71,421.879z M177.519,417.785h-3.305
					l-0.161-0.154c-0.076-0.104-0.099-0.235-0.06-0.37l1.583-3.816c0.083-0.313,0.332-0.341,0.406-0.341
					c0.134,0,0.314,0.064,0.397,0.364l1.593,3.939l-0.103,0.205C177.825,417.677,177.72,417.785,177.519,417.785z M174.758,417.127
					h2.395l-1.182-2.924L174.758,417.127z"/>
			</g>
			<g>
				<path fill="#D2AB67" d="M184.484,415.073c0-2.333,0-2.764-0.035-3.255c-0.034-0.525-0.17-0.768-0.734-0.877
					c-0.136-0.031-0.427-0.043-0.665-0.043c-0.19,0-0.291-0.032-0.291-0.139c0-0.105,0.12-0.137,0.374-0.137
					c0.904,0,1.979,0.043,2.493,0.043c0.409,0,1.484-0.043,2.099-0.043c0.256,0,0.375,0.031,0.375,0.137
					c0,0.106-0.103,0.139-0.275,0.139c-0.188,0-0.288,0.014-0.493,0.043c-0.462,0.077-0.6,0.34-0.632,0.877
					c-0.035,0.492-0.035,0.922-0.035,3.255v2.152c0,2.227,0.496,3.164,1.333,3.776c0.768,0.568,1.552,0.628,2.133,0.628
					c0.752,0,1.672-0.212,2.353-0.829c0.943-0.847,0.993-2.225,0.993-3.809v-1.92c0-2.334,0-2.766-0.035-3.258
					c-0.034-0.521-0.17-0.767-0.734-0.875c-0.136-0.03-0.429-0.045-0.612-0.045c-0.19,0-0.292-0.031-0.292-0.137
					s0.12-0.139,0.361-0.139c0.87,0,1.945,0.045,1.961,0.045c0.207,0,1.282-0.045,1.95-0.045c0.238,0,0.356,0.033,0.356,0.139
					s-0.103,0.137-0.306,0.137c-0.186,0-0.287,0.016-0.496,0.045c-0.457,0.078-0.596,0.34-0.628,0.875
					c-0.039,0.493-0.039,0.924-0.039,3.258v1.645c0,1.705-0.186,3.518-1.62,4.623c-1.21,0.938-2.44,1.107-3.549,1.107
					c-0.907,0-2.544-0.047-3.79-1.061c-0.869-0.707-1.52-1.844-1.52-4.072V415.073L184.484,415.073z"/>
				<path fill="#D2AB67" d="M189.793,422.777c-1.213,0-2.763-0.128-3.997-1.134c-1.118-0.91-1.639-2.282-1.639-4.326v-2.241
					c0-2.332,0-2.754-0.035-3.232c-0.027-0.427-0.095-0.506-0.469-0.576c-0.106-0.026-0.36-0.041-0.603-0.041
					c-0.56,0-0.619-0.326-0.619-0.466c0-0.311,0.238-0.466,0.703-0.466c0.521,0,1.092,0.015,1.588,0.029
					c0.364,0.012,0.686,0.018,0.905,0.018c0.182,0,0.496-0.01,0.845-0.018c0.432-0.015,0.912-0.029,1.253-0.029
					c0.467,0,0.703,0.155,0.703,0.466c0,0.11-0.042,0.466-0.603,0.466c-0.168,0-0.262,0.015-0.444,0.043
					c-0.215,0.036-0.322,0.074-0.354,0.571c-0.035,0.481-0.035,0.903-0.035,3.235v2.15c0,2.186,0.479,2.985,1.198,3.513
					c0.674,0.501,1.358,0.567,1.939,0.567c0.393,0,1.387-0.072,2.133-0.746c0.818-0.735,0.882-1.995,0.882-3.566v-1.919
					c0-2.334,0-2.753-0.035-3.233c-0.026-0.426-0.091-0.504-0.464-0.577c-0.103-0.021-0.353-0.039-0.552-0.039
					c-0.56,0-0.62-0.327-0.62-0.466c0-0.211,0.12-0.468,0.688-0.468c0.767,0,1.699,0.038,1.922,0.046
					c0.114-0.002,0.291-0.005,0.523-0.012c0.433-0.014,1.033-0.035,1.465-0.035c0.568,0,0.686,0.256,0.686,0.467
					c0,0.175-0.083,0.465-0.636,0.465c-0.166,0-0.261,0.016-0.446,0.042c-0.211,0.038-0.322,0.076-0.352,0.573
					c-0.035,0.48-0.035,0.902-0.035,3.234v1.646c0,1.744-0.208,3.694-1.748,4.884C192.195,422.643,190.83,422.777,189.793,422.777z
					 M184.5,410.971c0.19,0.209,0.255,0.492,0.278,0.827c0.035,0.503,0.035,0.926,0.035,3.277v2.241
					c0,2.402,0.797,3.331,1.401,3.817c1.211,0.987,2.872,0.987,3.583,0.987c0.99,0,2.164-0.123,3.349-1.039
					c1.314-1.011,1.494-2.695,1.494-4.363v-1.644c0-2.353,0-2.776,0.034-3.278c0.019-0.293,0.072-0.597,0.25-0.825
					c-0.104,0.003-0.202,0.008-0.287,0.011c-0.243,0.007-0.433,0.013-0.507,0.013c-0.118-0.003-0.35-0.013-0.632-0.023
					c0.19,0.21,0.258,0.492,0.281,0.826c0.035,0.503,0.035,0.926,0.035,3.277v1.919c0,1.737-0.083,3.139-1.097,4.055
					c-0.647,0.58-1.586,0.914-2.577,0.914c-0.65,0-1.497-0.079-2.331-0.693c-1.039-0.766-1.464-1.934-1.464-4.043v-2.15
					c0-2.353,0-2.775,0.034-3.278c0.019-0.293,0.072-0.596,0.25-0.823c-0.042,0-0.089,0.002-0.132,0.002
					c-0.357,0.012-0.678,0.021-0.863,0.021c-0.223,0-0.549-0.009-0.924-0.019C184.637,410.975,184.569,410.972,184.5,410.971z"/>
			</g>
			<g>
				<path fill="#D2AB67" d="M199.764,415.073c0-2.333,0-2.764-0.035-3.255c-0.035-0.525-0.17-0.768-0.735-0.877
					c-0.135-0.031-0.428-0.043-0.666-0.043c-0.19,0-0.292-0.032-0.292-0.139c0-0.105,0.121-0.137,0.375-0.137
					c0.904,0,1.982,0.043,2.338,0.043c0.583,0,1.878-0.043,2.406-0.043c1.076,0,2.221,0.093,3.141,0.661
					c0.477,0.29,1.163,1.075,1.163,2.104c0,1.138-0.529,2.181-2.252,3.439c1.518,1.723,2.696,3.088,3.702,4.041
					c0.957,0.891,1.657,0.999,1.91,1.042c0.19,0.033,0.341,0.047,0.477,0.047c0.14,0,0.208,0.045,0.208,0.123
					c0,0.121-0.12,0.152-0.325,0.152h-1.62c-0.957,0-1.386-0.076-1.828-0.292c-0.734-0.354-1.382-1.075-2.338-2.257
					c-0.683-0.846-1.468-1.89-1.688-2.121c-0.087-0.09-0.19-0.107-0.31-0.107l-1.484-0.032c-0.088,0-0.136,0.032-0.136,0.122v0.215
					c0,1.43,0,2.643,0.083,3.287c0.053,0.444,0.155,0.782,0.667,0.844c0.258,0.035,0.631,0.063,0.837,0.063
					c0.135,0,0.207,0.044,0.207,0.121c0,0.108-0.12,0.152-0.346,0.152c-0.987,0-2.251-0.044-2.509-0.044
					c-0.321,0-1.401,0.044-2.081,0.044c-0.223,0-0.341-0.044-0.341-0.152c0-0.077,0.067-0.121,0.274-0.121
					c0.257,0,0.46-0.032,0.612-0.063c0.344-0.059,0.428-0.398,0.495-0.844c0.087-0.645,0.087-1.857,0.087-3.271v-2.701h0.003
					V415.073z M201.777,416.289c0,0.169,0.035,0.229,0.155,0.277c0.356,0.105,0.87,0.152,1.294,0.152
					c0.686,0,0.904-0.061,1.215-0.263c0.511-0.337,1.008-1.043,1.008-2.303c0-2.183-1.604-2.81-2.612-2.81
					c-0.428,0-0.735,0.017-0.905,0.061c-0.12,0.03-0.155,0.092-0.155,0.215L201.777,416.289L201.777,416.289z"/>
				<path fill="#D2AB67" d="M211.182,422.561h-1.619c-0.989,0-1.465-0.079-1.974-0.325c-0.765-0.368-1.426-1.08-2.449-2.347
					c-0.291-0.36-0.602-0.756-0.877-1.109c-0.349-0.446-0.678-0.87-0.795-0.991c0,0-0.015-0.006-0.071-0.006l-1.291-0.028v0.006
					c0,1.406,0,2.621,0.08,3.245c0.053,0.454,0.131,0.53,0.382,0.561c0.243,0.031,0.608,0.061,0.794,0.061
					c0.37,0,0.533,0.224,0.533,0.449c0,0.146-0.064,0.482-0.67,0.482c-0.659,0-1.437-0.021-1.964-0.034
					c-0.262-0.01-0.457-0.015-0.545-0.015c-0.127,0-0.381,0.009-0.687,0.017c-0.443,0.015-0.988,0.032-1.396,0.032
					c-0.604,0-0.67-0.337-0.67-0.482c0-0.106,0.04-0.449,0.603-0.449c0.242,0,0.432-0.034,0.548-0.058
					c0.104-0.018,0.167-0.114,0.235-0.571c0.083-0.616,0.083-1.823,0.083-3.223v-2.704c0-2.332,0-2.754-0.035-3.232
					c-0.027-0.427-0.091-0.504-0.469-0.576c-0.105-0.024-0.36-0.041-0.602-0.041c-0.56,0-0.62-0.326-0.62-0.466
					c0-0.309,0.239-0.466,0.703-0.466c0.56,0,1.184,0.02,1.665,0.032c0.295,0.009,0.537,0.017,0.675,0.017
					c0.294,0,0.775-0.012,1.25-0.025c0.454-0.012,0.9-0.023,1.158-0.023c1.072,0,2.302,0.084,3.316,0.709
					c0.631,0.387,1.318,1.301,1.318,2.384c0,1.293-0.636,2.351-2.101,3.489l0.337,0.384c1.251,1.425,2.244,2.55,3.109,3.37
					c0.859,0.803,1.488,0.914,1.724,0.955c0.182,0.029,0.318,0.044,0.439,0.044c0.37,0,0.536,0.225,0.536,0.45
					C211.837,422.259,211.75,422.561,211.182,422.561z M203.404,417.127c0.159,0,0.366,0.025,0.541,0.213
					c0.135,0.141,0.445,0.536,0.837,1.035c0.273,0.354,0.579,0.744,0.866,1.102c0.965,1.189,1.574,1.852,2.224,2.167
					c0.365,0.176,0.708,0.261,1.689,0.261h0.226c-0.317-0.164-0.687-0.415-1.1-0.799c-0.89-0.842-1.89-1.978-3.152-3.416l-0.81-0.92
					l0.287-0.211c1.87-1.363,2.12-2.373,2.12-3.176c0-0.889-0.603-1.577-1.003-1.823c-0.878-0.539-1.995-0.614-2.971-0.614
					c-0.257,0-0.695,0.014-1.143,0.025c-0.477,0.012-0.966,0.023-1.264,0.023c-0.139,0-0.385-0.006-0.691-0.014
					c-0.091-0.004-0.182-0.007-0.28-0.01c0.189,0.209,0.258,0.49,0.276,0.826c0.039,0.502,0.039,0.926,0.039,3.276v2.706
					c0,1.419,0,2.648-0.092,3.314c-0.034,0.229-0.083,0.547-0.245,0.79c0.086-0.003,0.174-0.005,0.258-0.009
					c0.31-0.011,0.571-0.018,0.703-0.018c0.091,0,0.291,0.006,0.564,0.013c0.155,0.005,0.337,0.009,0.529,0.015
					c-0.211-0.256-0.253-0.595-0.277-0.797c-0.088-0.662-0.088-1.898-0.088-3.326v-0.214c0-0.267,0.194-0.45,0.466-0.45
					L203.404,417.127L203.404,417.127z M203.227,417.045c-0.524,0-1.04-0.06-1.39-0.165c-0.352-0.134-0.388-0.401-0.388-0.591v-4.67
					c0-0.375,0.249-0.496,0.401-0.533c0.185-0.051,0.48-0.07,0.988-0.07c1.415,0,2.938,0.98,2.938,3.138
					c0,1.579-0.723,2.294-1.155,2.58C204.241,416.98,203.941,417.045,203.227,417.045z M202.106,416.273
					c0.277,0.07,0.699,0.115,1.12,0.115c0.651,0,0.803-0.056,1.033-0.206c0.321-0.208,0.857-0.756,0.857-2.029
					c0-1.96-1.433-2.481-2.281-2.481c-0.136,0-0.512,0-0.731,0.034v4.567H202.106z"/>
			</g>
			<g>
				<path fill="#D2AB67" d="M213.334,418.223c-0.083,0-0.119,0.032-0.151,0.123l-0.924,2.197c-0.17,0.383-0.254,0.752-0.254,0.935
					c0,0.28,0.152,0.478,0.684,0.478h0.257c0.203,0,0.254,0.031,0.254,0.122c0,0.121-0.103,0.152-0.287,0.152
					c-0.549,0-1.283-0.044-1.81-0.044c-0.189,0-1.128,0.044-2.017,0.044c-0.219,0-0.322-0.031-0.322-0.152
					c0-0.093,0.067-0.122,0.204-0.122c0.151,0,0.393-0.016,0.528-0.032c0.783-0.092,1.108-0.613,1.449-1.384l4.284-9.646
					c0.203-0.443,0.307-0.612,0.478-0.612c0.154,0,0.257,0.137,0.428,0.491c0.409,0.847,3.141,7.111,4.232,9.445
					c0.65,1.383,1.147,1.598,1.501,1.674c0.258,0.046,0.516,0.061,0.719,0.061c0.135,0,0.218,0.016,0.218,0.123
					c0,0.121-0.151,0.152-0.783,0.152c-0.612,0-1.861,0-3.228-0.031c-0.306-0.016-0.511-0.016-0.511-0.123
					c0-0.092,0.067-0.121,0.239-0.136c0.12-0.034,0.239-0.169,0.155-0.354l-1.366-3.258c-0.035-0.076-0.083-0.107-0.171-0.107
					h-3.806V418.223L213.334,418.223z M216.816,417.455c0.087,0,0.103-0.045,0.087-0.091l-1.536-3.794
					c-0.02-0.062-0.035-0.138-0.087-0.138c-0.047,0-0.083,0.075-0.103,0.138l-1.572,3.779c-0.015,0.059,0,0.105,0.072,0.105H216.816
					L216.816,417.455z"/>
				<path fill="#D2AB67" d="M222.025,422.561c-0.617,0-1.866,0-3.236-0.032l-0.08-0.005c-0.318-0.013-0.754-0.035-0.754-0.445
					c0-0.174,0.079-0.381,0.42-0.448l-1.326-3.079h-3.599l-0.889,2.121c-0.167,0.377-0.231,0.694-0.231,0.806
					c0,0.067,0,0.151,0.357,0.151h0.258c0.48,0,0.583,0.244,0.583,0.449c0,0.146-0.06,0.482-0.617,0.482
					c-0.281,0-0.608-0.014-0.93-0.025c-0.313-0.012-0.62-0.023-0.876-0.023c-0.061,0-0.19,0.006-0.367,0.012
					c-0.401,0.014-1.036,0.037-1.649,0.037c-0.538,0-0.652-0.266-0.652-0.483c0-0.075,0.028-0.45,0.533-0.45
					c0.144,0,0.363-0.015,0.492-0.03c0.595-0.069,0.849-0.424,1.188-1.188l4.285-9.647c0.2-0.435,0.37-0.806,0.774-0.806
					c0.397,0,0.58,0.375,0.723,0.677c0.182,0.374,0.817,1.81,1.551,3.471c0.924,2.081,2.07,4.673,2.684,5.978
					c0.637,1.358,1.068,1.447,1.275,1.494c0.194,0.035,0.424,0.055,0.647,0.055c0.496,0,0.548,0.314,0.548,0.451
					C223.137,422.561,222.621,422.561,222.025,422.561z M219.012,421.879c0.79,0.015,1.536,0.023,2.127,0.025
					c-0.322-0.255-0.677-0.709-1.067-1.544c-0.612-1.312-1.763-3.908-2.688-5.993c-0.735-1.655-1.367-3.085-1.545-3.449
					c-0.059-0.119-0.103-0.196-0.128-0.246c-0.067,0.111-0.151,0.29-0.182,0.364l-4.285,9.644c-0.204,0.463-0.428,0.902-0.794,1.201
					c0.094-0.003,0.182-0.006,0.261-0.009c0.19-0.006,0.326-0.011,0.389-0.011c0.198,0,0.428,0.006,0.667,0.014
					c-0.072-0.134-0.091-0.278-0.091-0.393c0-0.263,0.11-0.68,0.283-1.069l0.92-2.19c0.076-0.209,0.231-0.325,0.454-0.325h3.807
					c0.216,0,0.382,0.108,0.47,0.302l1.369,3.264C219.04,421.594,219.053,421.744,219.012,421.879z M216.816,417.785h-3.303
					l-0.16-0.154c-0.079-0.104-0.098-0.235-0.06-0.37l1.581-3.816c0.083-0.313,0.334-0.341,0.405-0.341
					c0.135,0,0.318,0.064,0.401,0.364l1.592,3.939l-0.105,0.205C217.126,417.677,217.02,417.785,216.816,417.785z M214.058,417.127
					h2.394l-1.184-2.924L214.058,417.127z"/>
			</g>
			<g>
				<path fill="#D2AB67" d="M225.559,420.144c0.034,1.196,0.258,1.598,0.598,1.705c0.292,0.092,0.617,0.108,0.891,0.108
					c0.186,0,0.286,0.03,0.286,0.121c0,0.122-0.151,0.152-0.389,0.152c-1.112,0-1.794-0.044-2.12-0.044
					c-0.151,0-0.953,0.044-1.842,0.044c-0.22,0-0.374-0.015-0.374-0.152c0-0.094,0.103-0.121,0.272-0.121
					c0.223,0,0.529-0.017,0.768-0.078c0.444-0.121,0.511-0.568,0.529-1.902l0.155-9.094c0-0.307,0.047-0.523,0.219-0.523
					c0.19,0,0.341,0.201,0.631,0.477c0.204,0.199,2.8,2.702,5.29,4.932c1.162,1.042,3.467,3.257,3.755,3.5h0.087l-0.171-6.896
					c-0.019-0.938-0.17-1.229-0.582-1.383c-0.254-0.093-0.667-0.093-0.905-0.093c-0.204,0-0.273-0.044-0.273-0.138
					c0-0.121,0.19-0.138,0.444-0.138c0.889,0,1.707,0.044,2.066,0.044c0.19,0,0.837-0.044,1.672-0.044
					c0.223,0,0.393,0.017,0.393,0.138c0,0.094-0.103,0.138-0.306,0.138c-0.171,0-0.306,0-0.516,0.044
					c-0.477,0.125-0.612,0.445-0.628,1.309l-0.189,9.691c0,0.338-0.068,0.475-0.223,0.475c-0.186,0-0.39-0.169-0.58-0.337
					c-1.075-0.923-3.258-2.935-5.032-4.517c-1.863-1.658-3.757-3.578-4.065-3.868h-0.049L225.559,420.144z"/>
				<path fill="#D2AB67" d="M235.099,422.745c-0.302,0-0.56-0.208-0.798-0.424c-0.636-0.543-1.671-1.482-2.77-2.474
					c-0.754-0.685-1.545-1.396-2.263-2.041c-1.386-1.234-2.782-2.605-3.546-3.358l0.167,5.687c0.015,0.593,0.095,1.315,0.366,1.401
					c0.265,0.082,0.576,0.094,0.791,0.094c0.555,0,0.616,0.313,0.616,0.45c0,0.22-0.124,0.481-0.718,0.481
					c-0.727,0-1.271-0.021-1.655-0.033c-0.201-0.009-0.352-0.015-0.464-0.015c-0.041,0-0.14,0.006-0.277,0.01
					c-0.345,0.014-0.934,0.04-1.568,0.04c-0.175,0-0.703,0-0.703-0.483c0-0.105,0.044-0.45,0.603-0.45
					c0.272,0,0.523-0.024,0.688-0.067c0.182-0.051,0.265-0.281,0.28-1.591l0.155-9.092c0-0.697,0.299-0.849,0.548-0.849
					c0.283,0,0.48,0.193,0.704,0.418l0.154,0.15c0.406,0.395,2.937,2.827,5.285,4.924c0.67,0.602,1.714,1.588,2.54,2.37
					c0.28,0.262,0.532,0.501,0.737,0.691l-0.155-6.202c-0.015-0.951-0.177-1.014-0.365-1.086c-0.198-0.071-0.583-0.071-0.791-0.071
					c-0.556,0-0.602-0.356-0.602-0.466c0-0.468,0.54-0.468,0.771-0.468c0.549,0,1.071,0.021,1.477,0.034
					c0.25,0.009,0.454,0.016,0.592,0.016c0.056,0,0.163-0.006,0.302-0.012c0.31-0.013,0.798-0.038,1.37-0.038
					c0.178,0,0.723,0,0.723,0.468c0,0.111-0.045,0.466-0.637,0.466c-0.163,0-0.272,0-0.439,0.041
					c-0.197,0.048-0.36,0.092-0.378,0.991l-0.186,9.691C235.651,422.605,235.351,422.745,235.099,422.745z M225.031,413.364h0.469
					l0.148,0.091c0.064,0.059,0.194,0.188,0.378,0.369c0.715,0.706,2.203,2.178,3.674,3.492c0.722,0.645,1.513,1.359,2.271,2.045
					c1.093,0.99,2.127,1.925,2.76,2.468c0.12,0.104,0.201,0.169,0.262,0.205c0-0.026,0-0.059,0-0.097l0.189-9.698
					c0.008-0.491,0.044-0.955,0.302-1.271c-0.099,0.003-0.182,0.008-0.261,0.012c-0.152,0.008-0.266,0.012-0.33,0.012
					c-0.139,0-0.353-0.007-0.613-0.016c-0.047,0-0.102-0.003-0.154-0.006c0.266,0.297,0.334,0.754,0.349,1.393l0.179,7.23h-0.541
					l-0.095-0.079c-0.125-0.105-0.617-0.571-1.235-1.151c-0.821-0.773-1.861-1.758-2.528-2.356c-2.354-2.105-4.896-4.547-5.3-4.941
					l-0.164-0.158c-0.041-0.041-0.087-0.088-0.128-0.129c0,0.029-0.003,0.062-0.003,0.099l-0.152,9.098
					c-0.012,0.904-0.038,1.538-0.298,1.9c0.118-0.006,0.227-0.009,0.318-0.014c0.147-0.004,0.253-0.01,0.297-0.01
					c0.119,0,0.281,0.006,0.488,0.015c0.1,0.003,0.208,0.007,0.326,0.01c-0.258-0.309-0.382-0.855-0.409-1.729L225.031,413.364z"/>
			</g>
			<g>
				<path fill="#D2AB67" d="M243.042,411.481l-2.542,0.061c-0.992,0.03-1.401,0.108-1.657,0.443
					c-0.171,0.231-0.253,0.418-0.287,0.539c-0.033,0.122-0.086,0.185-0.189,0.185c-0.118,0-0.155-0.076-0.155-0.246
					c0-0.246,0.326-1.646,0.36-1.765c0.053-0.202,0.103-0.293,0.204-0.293c0.136,0,0.311,0.155,0.734,0.186
					c0.498,0.046,1.143,0.075,1.708,0.075h6.758c0.544,0,0.923-0.043,1.176-0.075c0.257-0.047,0.394-0.077,0.461-0.077
					c0.121,0,0.136,0.092,0.136,0.323c0,0.321-0.048,1.382-0.048,1.783c-0.02,0.15-0.053,0.243-0.155,0.243
					c-0.136,0-0.17-0.076-0.19-0.305l-0.015-0.172c-0.035-0.398-0.497-0.829-2.014-0.858l-2.152-0.044v6.298
					c0,1.412,0,2.625,0.087,3.285c0.052,0.431,0.155,0.767,0.666,0.829c0.239,0.034,0.612,0.062,0.87,0.062
					c0.19,0,0.273,0.044,0.273,0.122c0,0.109-0.136,0.153-0.326,0.153c-1.124,0-2.199-0.044-2.679-0.044
					c-0.389,0-1.464,0.044-2.149,0.044c-0.218,0-0.34-0.044-0.34-0.153c0-0.078,0.067-0.122,0.272-0.122
					c0.258,0,0.461-0.032,0.612-0.062c0.344-0.06,0.446-0.399,0.497-0.845c0.086-0.645,0.086-1.859,0.086-3.271v-6.299H243.042z"/>
				<path fill="#D2AB67" d="M246.742,422.561c-0.686,0-1.351-0.018-1.877-0.032c-0.337-0.009-0.613-0.017-0.803-0.017
					c-0.167,0-0.457,0.011-0.791,0.02c-0.449,0.015-0.968,0.029-1.357,0.029c-0.604,0-0.67-0.337-0.67-0.482
					c0-0.105,0.044-0.449,0.602-0.449c0.243,0,0.432-0.034,0.552-0.058c0.056-0.009,0.17-0.03,0.231-0.56
					c0.083-0.627,0.083-1.834,0.083-3.232v-5.964l-2.206,0.056c-0.924,0.029-1.238,0.099-1.405,0.313
					c-0.167,0.229-0.22,0.374-0.234,0.428c-0.104,0.371-0.361,0.427-0.504,0.427c-0.114,0-0.48-0.041-0.48-0.574
					c0-0.316,0.353-1.793,0.371-1.854c0.035-0.14,0.131-0.532,0.519-0.532c0.119,0,0.211,0.04,0.307,0.076
					c0.114,0.043,0.238,0.094,0.449,0.108c0.504,0.049,1.147,0.078,1.685,0.078h6.759c0.516,0,0.861-0.04,1.119-0.072l0.198-0.036
					c0.163-0.032,0.265-0.047,0.321-0.047c0.465,0,0.465,0.492,0.465,0.653c0,0.155-0.012,0.478-0.023,0.817
					c-0.015,0.366-0.031,0.759-0.031,0.965c-0.053,0.504-0.325,0.571-0.48,0.571c-0.469,0-0.504-0.455-0.516-0.607l-0.016-0.163
					c-0.022-0.246-0.477-0.539-1.695-0.562l-1.816-0.039v5.962c0,1.398,0,2.604,0.083,3.246c0.052,0.437,0.135,0.517,0.378,0.543
					c0.233,0.032,0.591,0.061,0.833,0.061c0.573,0,0.603,0.375,0.603,0.449C247.396,422.159,247.367,422.561,246.742,422.561z
					 M243.37,411.145v6.635c0,1.419,0,2.648-0.091,3.314c-0.019,0.184-0.059,0.527-0.242,0.79c0.075-0.003,0.144-0.005,0.215-0.008
					c0.34-0.009,0.639-0.019,0.809-0.019c0.194,0,0.477,0.009,0.822,0.018c0.103,0.001,0.207,0.006,0.321,0.009
					c-0.212-0.254-0.25-0.583-0.272-0.781c-0.088-0.677-0.088-1.901-0.088-3.323v-6.633l2.486,0.051
					c1.151,0.023,1.756,0.271,2.058,0.574c0-0.047,0.004-0.097,0.004-0.144c0.012-0.305,0.023-0.595,0.027-0.756
					c-0.003,0-0.009,0-0.012,0l-0.201,0.04c-0.294,0.035-0.686,0.082-1.238,0.082h-6.759c-0.556,0-1.222-0.031-1.736-0.079
					c-0.27-0.021-0.457-0.084-0.591-0.134c-0.032,0.105-0.121,0.504-0.202,0.887c0.341-0.352,0.844-0.427,1.802-0.453
					L243.37,411.145z"/>
			</g>
		</g>
	</g>
	<rect x="38.321" y="400.34" fill="#D2AB67" width="299.885" height="2.625"/>
	<rect x="194.761" y="363.661" fill="#D2AB67" width="143.445" height="2.626"/>
	<rect x="79.524" y="363.661" fill="#D2AB67" width="73.705" height="2.626"/>
	<path fill="#D2AB67" d="M127.895,439.497c0,0,3.255,2.96,4.092-1.395c-0.02-1.566-1.37-3.069-2.725-3.283
		c-9.593-1.503-8.885,8.442-3.95,11.952c3.906,2.775,9.697,2.623,10.994-0.937c3.025,1.692,6.959-0.788,7.928-4.035
		c0.663-2.221-0.063-4.804-3.424-6.649c1.992-3.109-1.918-6.662-7.287-7.58c-3.426-0.586-7.572,0.308-12.567,0.877
		c-3.062,0.352-5.385,0.418-8.42-0.243c-11.023-2.394-15.703-10.652-15.712-20.482c0.563,5.71,3.566,12.111,7.188,15.024
		c4.052,3.261,9.104,4.643,13.116,3.456c4.548-1.344,7.341-5.631,4.354-8.489c2.643-1.922,0.21-5.35-1.896-6.549
		c-1.751-0.999-3.618-0.393-3.941,0.22c-3.515-4.591-12.782,3.941-7.287,8.233c1.955,1.525,3.932,0.925,4.875-0.311
		c1.089-1.43,0.773-3.936-1.517-3.278c0.808-1.513,2.768-1.1,3.735,0.594c0.802,1.407,0.918,3.906-0.805,4.981
		c-7.018,4.389-17.768-8.49-15.81-17.578c0.499,5.842,4.998,9.445,7,6.152c2.382,1.654,5-1.104,3.436-3.085
		c1.838-0.923,0.671-3.042-1.008-3.909c-1.479-0.768-3.422-0.181-3.793,1.22c-0.656,2.483,2.351,2.982,2.081,0.688
		c2.356,0.973-1.656,5.498-4.733,0.708c-4.454-6.935,0.984-13.201,0.984-13.201c-7.665,7.304-9.222,15.835-6.608,24.646
		c5.264,14.9,15.819,16.18,30.037,15.703c6.589-0.221,11.102,4.966,6.636,8.469C131.122,442.781,128.045,442,127.895,439.497z"/>
</g>
<g>
	<path fill="#D2AB67" d="M318.806,281.611c0-11.916-0.846-23.334-0.846-35.42l-0.558-10.058c0-4.747,0-9.494,0-14.248
		c0-5.81-0.841-10.938-1.102-16.483c-0.213-4.551,0.713-8.494,1.116-13.134c0.475-5.346,0.226-11.161-0.015-16.544
		c-0.24-5.391-2.218-9.971-2.514-15.317c-0.144-2.704,0.58-4.656,0.835-7.048c0.302-2.763,0.12-5.812,0-8.584
		c-0.103-2.475-1.118-4.612-0.573-7.002c0.527-2.349,1.414-3.787,1.414-6.693c0-2.286,0.08-4.528-0.494-6.561
		c-0.633-2.244-0.364-3.439-0.35-6.292l-0.228-5.692c0,0-0.379-3.007-0.379-4.51c0-1.504-0.369-6.759-0.369-7.891
		c0-1.127,1.542-8.453,1.542-8.453c-0.669-7.423,0.532-21.156-9.777-22.07c-2.783-0.245-5.024,1.784-7.833,1.673
		c-2.71-0.097-5.194-1.43-7.876-1.673c-11.46-1.049-23.084-0.656-34.603-1.403c-35.973-2.35-72.215-0.834-108.229-0.834
		c-6.16,0-12.239-0.557-18.385-0.557c-2.684,0-4.961,0.647-7.469,0.55c-7.332-0.283-15.413,0.595-23.247,0.227
		c-7.168-0.341-13.885-0.047-20.352,1.81c-2.618,0.757-4.839,0.751-7.266,2.229c-2.382,1.451-4.263,4.034-6.984,4.962l-1.396,2.234
		c-2.158,4.586-1.688,11.715-2.517,16.969c-1.158,7.361-0.778,15.195-1.123,22.631c-0.6,12.995-0.961,25.65-0.21,38.631
		c1.155,19.931-0.902,39.625-0.902,59.517l-0.281,5.586c-0.003,7.413,0.84,17.96,0.84,25.422c0,9.079,0.121,18.066,0.55,27.118
		c0.28,5.805,0.915,10.312,0.845,15.912c-0.066,5.882-0.056,9.726-0.275,15.369c-0.101,2.587-0.661,7.061,0.275,9.437
		c0.944,2.392,2.37,4.004,2.86,6.479c0.577,2.919,1.465,3.733,4.131,4.822c3.052,1.253,6.47,2.369,9.723,3.163
		c7.204,1.762,15.525,0.909,22.997,0.968c6.816,0.052,13.601,0.896,20.366,1.408c10.273,0.782,20.606,0.596,30.927,0.249
		c10.463-0.345,20.902-0.537,31.398-0.537c8.164,0,16.253,0.934,24.413,0.83c6.876-0.086,13.836-0.223,20.699-0.897
		c4.781-0.477,9.621-0.052,14.404-0.48c3.742-0.337,5.604-0.205,9.438,0.683c2.629,0.606,5.28,0.175,8.086-0.132
		c7.406-0.8,14.018-0.751,21.601,0.267c7.669,1.023,17.039,0.888,24.562-0.546c4.643-0.887,9.088-2.22,10.4-7.273
		c1.25-4.799,1.358-10.899,1.332-15.933C317.364,299.485,318.806,290.695,318.806,281.611z M307.047,197.371
		c-0.381,7.903-1.211,16.291-0.533,24.217c0.271,3.209,1.104,6.168,1.11,9.456c0.008,2.854-0.334,5.589-0.56,8.432
		c-0.288,3.636-0.683,7.296-0.85,10.933c-0.185,3.982,0.855,7.75,0.85,11.71c-0.006,3.999,0.122,8.008,0,12
		c-0.141,4.65-0.53,8.641-0.909,13.078c-0.626,7.252,1.204,14.022,1.187,21.038c-0.003,2.488,0.308,5.576-0.864,7.521
		c-1.508,2.487-7.572,1.492-10.842,1.344c-11.479-0.526-23.13,0.418-34.523-0.841c-5.087-0.568-9.953,0.42-14.997,0.639
		c-5.008,0.21-10.093-0.013-15.115-0.013c-9.955,0-19.586,1.732-29.509,2.168c-4.248,0.192-7.812,2.237-12.28,2.299
		c-3.589,0.049-7.061-0.865-10.74-0.838c-6.849,0.053-13.44-0.247-20.3-0.571c-1.831-0.083-3.79,0.248-5.555-0.306
		c-0.928-0.289-2.011-1.361-3.346-1.592c-3.203-0.555-6.933-0.044-10.167-0.044c-6.313,0-12.694-0.171-18.963,0.271
		c-5.948,0.414-11.373-0.275-17.311-0.271c-9.838,0.014-19.638,1.268-29.587,0.8c-1.744-3.438-0.874-9.891-0.879-13.931
		c-0.005-5.525,0.316-11.164,0.56-16.767c0.323-7.419,1.158-14.875,1.403-22.354c0.184-5.706-0.876-11.397-1.125-17.079
		c-0.275-6.163,0.028-12.13-1.145-18.476c-1.342-7.304-1.254-15.514-1.465-22.847l-0.185-5.013c-1.075-17.196-0.571-33.527,0-49.172
		c0.185-5.127,0.008-9.537-0.284-14.814c-0.287-5.297-0.839-10.496-0.839-15.989c0-7.571-0.031-15.316,1.123-22.289
		c0.63-3.824,1.754-11.019,0.28-14.805l-0.564-3.356c2.729,0,5.085,0.123,7.173-0.983c1.215-0.644,1.253-1.215,2.597-1.53
		c1.301-0.311,3.142,0,4.479,0c4.308,0,8.562-0.283,12.859-0.281c1.614,0,3.453,0.302,5.022,0c1.292-0.247,1.807-1.267,2.854-1.56
		c3.24-0.901,3.512,1.604,5.806,2.627c3.615,1.622,9.759-0.188,13.48-0.772c4.096-0.651,7.931-0.634,12.17-0.853
		c1.246-0.062,2.836,0.122,3.991-0.263c1.067-0.358,1.994-1.604,3.046-1.694c1.184-0.105,2.45,0.557,3.65,0.825
		c3.356,0.748,7.104,0.219,10.569,0.578c9.093,0.917,18.376-0.416,27.552-0.014c4.144,0.194,7.69,1.163,11.864,1.128
		c8.313-0.073,16.601-0.56,24.955-0.56c4.336,0,8.615,0.424,12.755,0.56c2.27,0.07,3.52-1.131,5.365-1.657
		c2.276-0.658,5.342-0.957,7.718-0.922c3.184,0.058,6.775-0.293,10.369-0.773c1.897-0.254,2.482,0.223,3.744,0.493
		c2.022,0.45,3.974,0.468,6.33,0.612c3.834,0.237,8.531,2.701,12.338,1.688c1.99-0.528,2.576-1.586,5.057-1.416
		c3.31,0.226,6.369,0.87,9.832,0.861c2.112-0.014,3.835,0.033,5.726,0.883c0.205,3.331,0.302,5.263,1.443,8.238
		c1.075,2.789,2.542,6.304,2.81,9c0.829,8.332-0.292,17.079-0.292,25.464l0.28,3.915c-0.25,2.152,0.167,5.25,0.808,7.267
		c0.782,2.468,1.28,4.584,1.427,7.514c0.282,5.708-1.115,10.649-1.115,16.503C306.789,170.368,307.708,183.964,307.047,197.371z"/>
	<g>
		<g>
			<g>
				<path fill="#89182C" d="M219.479,270.129c2.996,0.419,7.089,0.62,9.936,0.651c2.648,0.021,6.33,0.617,8.418-1.05
					c2.345-1.876,2.982-5.562,0.503-7.553c-2.141-1.717-5.513-1.17-8.291-1.17c-7.927,0-15.644-0.673-23.587-0.673
					c-3.178,0-6.16,0.473-9.35,0.501c-1.739,0.018-3.463,0.063-5.102,0.341c-2.191,0.376-4.664,1.797-3.458,5.561
					c1.137,3.533,4.123,3.028,7.824,3.028c4.303,0,8.678-0.192,12.96,0.023c0.139,2.745-0.744,5.743,0.656,8.151
					c1.32,2.269,4.292,4.005,4.594,6.654c0.405,3.602-1.295,5.55-3.244,8.06c-2.003,2.579-3.49,4.444-6.19,6.135
					c-1.459,0.91-2.54,2.165-4.006,2.955c-1.242,0.665-2.408,1.17-3.407,2.051c-2.704,2.394-0.804,5.157,2.151,5.898
					c3.273,0.818,5.385,0.303,7.75-1.688c2.037-1.713,3.934-3.908,6.276-5.092c2.958-1.5,4.144-2.673,5.967-5.314
					c1.413-2.042,2.54-4.987,3.498-7.242c0.812-1.919,0.901-5.945,0.013-8.031c-0.62-1.46-1.488-2.189-2.579-3.248
					c-0.727-0.699-2.288-1.691-2.662-2.565c-0.678-1.581,0.305-4.715,0.311-6.425L219.479,270.129z"/>
				<path fill="#89182C" d="M209.271,209.951c0.694-2.513,0.37-9.568,0.839-14.491c0.351-3.562,0.601-4.97,4.22-5.224
					c1.437-0.097,2.542-0.284,3.243,1.6c0.742,1.998,1.017,6.443,1.054,7.75c0.091,3.549-1.014,7.243-0.597,11.12
					c1.885,0.403,4.74,0.577,6.407,1.01c1.441,0.378,3.334,0.153,4.061-0.043c0.331-0.079,0.34-0.922,0.407-1.552
					c0.313-3.173-0.949-8.734,1.013-11.208c1.87-2.363,4.908-1.05,6.403,1.013c0.797,1.101,0.757,2.693,0.757,3.454
					c0,3.62,0.499,9.267-1.831,11.825c-2.806,3.073-6.562,4.201-10.556,4.602c-1.189,0.122-5.004,0.415-6.316,0.507
					c-0.92,0.066-0.796,2.199-0.285,2.244c0.727,0.06,2.972,0.331,3.486,0.366c7.556,0.542,15.167,0.17,16.849,6.067
					c1.138,3.974,1.002,13.311-0.843,16.422c-1.938,3.282-3.258,5.648-5.474,8.848c-1.198,1.727-2.422,2.137-5.228,2.022
					c-2.308-0.091-6.086-0.585-8.252-0.585c-4.659,0-9.291-0.268-13.898-0.761c-4.869-0.526-7.047-2.694-9.796-6.7
					c-2.509-3.664-2.979-7.11-2.977-11.707c0.01-4.38,0-9.17,3.716-12.056c3.457-2.684,8.367-1.673,12.546-1.889
					c0.355,0.052,0.424-1.347-0.123-1.726c-0.354-0.245-1.168-0.237-2.11-0.296c-2.968-0.194-7.562-1.831-8.839-2.597
					c-1.091-0.654-3.248-1.949-4.427-3.968c-1.866-3.212-2.553-7.792-2.356-11.168c0.143-2.491,0.813-4.904,3.747-5.262
					c5.305-0.64,3.511,6.835,4.602,9.8c1.43,3.895,6.869,3.846,10.562,3.846v-1.262L209.271,209.951L209.271,209.951z
					 M199.837,242.974c0.431,0.478,0.426,1.246,0.94,1.771c0.477,0.488,1.169,1.049,1.757,1.347c1.354,0.678,2.92,1.368,4.38,1.438
					c4.733,0.219,9.498,0,14.245-0.004c1.221,0,2.372-0.101,3.536-0.253c0.543-0.07,1.461-0.118,1.995-0.376
					c0.835-0.393,2.036-2.408,2.115-3.233c-1.639-0.08-3.076-0.229-4.687-0.355c-2.937-0.231-5.923,0.264-8.877-0.008
					c-5.079-0.466-10.223-0.668-15.32-0.913L199.837,242.974z M199.711,234.939c0.831,0.161,1.857,0.11,2.723,0.118
					c1.687,0.008,3.365,0.165,5.052,0.165c3.449-0.003,6.936,0.132,10.38-0.018c4.184-0.188,8.503-0.415,12.621-0.501
					c0.163-1.059-2.482-2.414-3.188-3c-1.325-1.076-3.15-1.595-4.865-1.789c-2.139-0.236-4.19-0.279-6.342-0.458
					c-2.696-0.237-5.616,0.091-8.341,0.118c-2.464,0.031-7.243,0.341-7.708,1.267c-0.756,1.508-1.005,2.527-1.017,4.039
					L199.711,234.939z"/>
				<path fill="#89182C" d="M261.853,197.349c-0.052-3.539,6.111-3.587,8.244-2.757c4.306,1.682-1.17,9.708,3.92,12.086
					c1.027,0.48,2.379,0.489,3.484,0.728c1.452,0.315,2.611,0.835,3.914,1.267c2.533,0.832,5.047,1.661,7.403,2.76
					c2.174,1.009,4.91,1.346,6.715,3.378c1.068,1.198,3.069,4.424,2.259,6.015c-0.895,1.754-4.45,2.028-6.22,2.469
					c-3.096,0.77-4.096-0.659-6.246-2.443c-3.8-3.156-8.224-5.192-12.853-6.185c-1.096-0.24-2.111-0.275-3.357-0.275
					c-1.395,0-2.166,0.536-3.349,0.712c-2.33,0.359-4.829,0.213-6.984,0.832c-2.139,0.619-3.979,1.911-6.159,2.792
					c-2.154,0.874-4.135,1.815-6.452,2.343c-2.168,0.488-5.167,1.267-4.995-2.064c0.147-2.833,1.25-3.904,3.253-5.592
					c1.708-1.438,3.422-2.976,5.722-3.605c2.347-0.63,4.883-0.236,7.09-1.002c2.106-0.728,4.864-0.661,5.035-3.497
					c0.069-1.119-0.23-2.242-0.287-3.353c-0.052-1.068,0.266-2.624-0.136-3.497v-1.113h0V197.349z"/>
				<path fill="#89182C" d="M272.283,230.88c0.097,0,0.375,0,0.471,0c2.699,0,4.608,0.37,6.841,1.285
					c2.483,1.019,4.629,2.635,6.783,4.152c1.946,1.377,3.901,3.891,4.35,6.252c0.284,1.517,0.281,5.451,0.314,5.944
					c0.037,1.391-0.086,2.75-0.479,4.057c-3.119,10.521-5.749,21.331-9.399,31.679c-1.363,3.891-3.657,7.483-5.019,11.212
					c-1.187,3.244-4.36,5.298-6.358,7.775c-0.911,1.133-1.628,2.335-2.652,3.362c-0.949,0.944-1.768,2.137-3.042,2.833
					c-1.942,1.062-5.37,0.453-6.469-1.514c-1.137-2.036,0.311-4.494,1.533-6.102c0.657-0.866,1.443-1.879,2.208-2.735
					c1.608-1.797,2.139-3.943,3.525-6.055c1.086-1.635,2.516-3.248,3.533-4.97c0.777-1.315,1.221-2.645,1.984-3.957
					c1.345-2.308,3.374-3.708,4.306-6.269c1.504-4.158,4.161-8.052,3.883-12.698c-0.152-0.07-0.34-0.076-0.463-0.205
					c-1.485-1.574-5.297-0.879-7.329-1.211c-3.122-0.502-6.202-0.438-9.365-0.008c-0.929,0.126-2.683,0.15-3.355,1.005
					c-0.795,1.002-0.07,2.484,0.83,3.083c2.287,1.531,5.001,1.441,7.549,2.229c2.238,0.695,4.705,1.307,6.566,2.792
					c2.426,1.941,0.846,4.023-1.085,5.731c-2.051,1.809-4.493-0.069-6.591-1.008c-2.362-1.049-5.412-1.727-7.816-2.382
					c-0.511-0.14-1.485-0.621-1.992-0.616c-1.044,0.008-0.39-0.123-1.055,0.665c-0.711,0.831-1.351,1.767-2.098,2.653
					c-1.017,1.202-1.569,2.082-2.864,2.998c-1.097,0.782-2.145,0.774-3.393,1.19c-1.834,0.606-4.737,2.22-5.659-0.871
					c-0.77-2.579,1.026-4.685,2.491-6.294c1.709-1.893,3.068-3.992,4.611-6.036c1.434-1.915,2.966-3.424,3.762-5.697
					c1.91-5.403,0.175-10.648,0.175-16.203c0-3.135,1.107-4.092,2.83-6.562c1.34-1.924,2.296-4.267,4.135-5.732
					c0.873-0.695,1.648-0.926,2.672-1.402c1.321-0.612,1.128-1.156,1.128-2.649c0-2.447-0.425-4.777-0.171-7.238
					c0.227-2.317,0.953-4.224,2.582-5.867c1.596-1.601,4.215-1.002,6.099-0.306c2.481,0.922,1.826,3.82,1.826,6.146
					c0,2.356-0.023,4.747-0.28,6.99L272.283,230.88z M259.55,244.785c0.276-0.149,1.286-0.206,1.576-0.316
					c1.885-0.727,4.079-0.313,6.182-0.313c2.897,0,5.174-0.324,7.958,0.393c0.958,0.244,2.103,0.783,2.671,1.57
					c0.517,0.712,0.366,1.59,0.366,2.519c0,2.385-1.086,2.946-3.243,3.167c-3.494,0.35-7.168,0.415-10.684,0.415
					c-1.365,0-2.736-0.057-4.09,0c-1.325,0.062-1.257,0.302-1.257,1.565c0,1.225-0.11,1.708,1.043,2.113
					c0.914,0.309,1.954,0.546,2.858,0.831c2.649,0.845,5.067,0.418,7.861,0.418c2.387,0,5.403,0.292,7.546-0.818
					c1.429-0.737,2.356-3.067,2.49-4.523c0.319-3.641,0.315-7.797-2.124-10.351c-1.47-1.542-4.066-1.869-5.995-2.719
					c-2.421-1.062-5.318-0.792-8.02-0.761c-1.826,0.021-4.101,0.729-5.372,2.062c-1.11,1.168-0.498,3.393-0.498,4.958
					L259.55,244.785z"/>
			</g>
			<g>
				<path fill="#89182C" d="M124.947,222.355c0.376-1.889,1.321-4.502-0.171-6.25c-1.367-1.613-4.649-1.291-6.674-1.294
					c-1.355,0-2.333,0.267-3.592,0.591c-1.089,0.275-2.273,0.132-3.392,0.39c-1.976,0.45-4.021,2.304-5.341,3.728
					c-1.828,1.972-2.759,3.274-2.759,6.19c0,2.475,0,4.935,0,7.406c0,2.343,0.62,5.022,1.503,7.187
					c0.521,1.271,1.351,1.6,2.38,2.447c0.891,0.738,1.25,1.692,2.517,1.998c1.386,0.334,1.66-0.369,2.261-1.434
					c0.661-1.181,0.919-1.587,2.234-1.817c2.312-0.397,4.922,0.21,7.127-0.557c3.417-1.193,6.021-10.084,0.55-9.786
					c-2.205,0.118-4.499,1.005-6.842,1.126c-1.482,0.076-2.106,0.15-2.963-0.991c-0.599-0.791-1.211-2.095-0.778-3.174
					c0.695-1.736,4.144-2.504,5.704-3.136c2.003-0.807,4.848,0.013,6.712-0.947c0.536-0.274,1.008-0.546,1.253-1.116
					L124.947,222.355z"/>
				<path fill="#89182C" d="M140.451,226.127c-1.869,0-5.342,0.644-6.88-0.379c-2.019-1.337-2.718-4.047-0.979-5.698
					c1.653-1.57,4.529-1.934,6.604-2.161c2.959-0.331,6.56-0.267,9.504,0c2.789,0.248,5.878,0.538,8.798,0.979
					c1.511,0.227,3.213,0.385,4.472,1.141c1.082,0.655,1.725,1.448,2.679,2.312c1.588,1.434,3.643,3.616,4.179,5.728
					c0.69,2.728-0.524,4.795-1.17,7.305c-1.044,4.036-1.391,8.752-5.341,11.108c-1.928,1.148-4.187,2.203-6.252,3.108
					c-1.839,0.804-3.794,1.486-4.703,3.501c2.546,0.144,5.036-0.119,7.531-0.258c3.146-0.171,5.999,0.703,8.777,1.677
					c2.176,0.766,5.21,1.184,6.7,3.107c1.165,1.501,1.544,4.403-0.59,5.378c-2.967,1.364-7.478,0.17-10.556,0.034
					c-3.854-0.174-7.869-0.174-11.714,0.022c0.1,1.889-0.718,3.817-0.42,5.688c5.292,0.271,10.635-0.271,15.907-0.01
					c1.802,0.083,5.36,0.394,6.609,1.95c1.257,1.559-0.814,4.685-2.106,5.692c-3.762,2.914-10.338,1.893-15.113,1.893
					c-8.364,0-17.339,0.214-25.283-1.298c-2.679-0.498-4.006-1.421-4.589-4.184c-0.624-2.977,1.107-3.773,3.882-4.021
					c2.658-0.24,5.185-0.429,7.935-0.415c1.197,0,2.422,0.283,3.104-0.803c0.494-0.783,0.486-2.753-0.175-3.498
					c-1.363-1.553-4.887-0.45-6.364,0.275c-2.715,1.342-3.725,1.276-4.817-1.679c-0.794-2.159-1.849-4.573,0.347-6.256
					c1.918-1.469,4.424-1.521,6.814-1.736c1.597-0.144,3.782-0.042,5.293-0.586c0.484-2.391,1.096-3.956,2.532-5.982
					c1.494-2.112,3.348-3.366,5.595-4.65c4.344-2.484,7.815-4.853,8.095-10.434c0.07-1.312-0.463-4.201-1.494-5.067
					c-0.998-0.845-3.619-0.428-4.908-0.365c-0.468,2.273-1.512,4.071-1.831,6.403c-0.337,2.44-1.447,4.67-3.148,6.331
					c-1.622,1.586-4.712,2.763-6.784,3.82c-2.15,1.1-4.311,2.177-6.806,0.856c-1.832-0.969-3.724-3.689-3.527-5.836
					c0.198-2.071,3.457-2.478,5.061-2.902c2.046-0.546,4.66-0.728,5.976-2.684c1.42-2.11-0.419-4.545-0.419-6.564L140.451,226.127z"
					/>
				<path fill="#89182C" d="M115.025,271.391c0.086,2.056,0.145,5.732,0.145,7.931c0,2.482-0.243,5.952,0.555,8.277
					c0.403,1.172,1.172,2.409,1.994,3.379c0.678,0.808,1.321,2.064,2.343,2.487c1.621,0.675,4.673-0.208,6.26-0.493
					c1.869-0.345,3.501-0.098,5.35,0.177c4.086,0.609,8.203,0.199,12.107,1.316c1.715,0.499,3.796,0.364,5.621-0.171
					c1.294-0.366,3.022-0.542,4.326-0.83c3.1-0.688,6.466-0.005,9.221,0.695c2.395,0.611,4.239,2.016,5.165,4.472
					c0.856,2.255,0.97,3.169,1.959,5.307c0.813,1.767,1.656,5.679,3.913,5.731c2.277,0.047,4.048-1.969,5.612-3.35
					c1.834-1.613,2.338-2.671,1.821-5.214c-0.464-2.269-0.371-4.515-2.058-6.317c-3.359-3.603-5.036-8.711-10.517-9.703
					c-2.62-0.477-5.13-0.29-7.851-0.281c-2.362,0.004-4.733-0.358-7.27-0.282c-7.938,0.218-15.825,0.013-23.638-0.7
					c-2.606-0.237-4.821-0.355-5.811-3.068c-0.798-2.207-0.502-5.067-0.729-7.545c-0.25-2.662-0.25-5.402-0.379-8.105
					c-0.127-2.552,0.188-4.419-1.396-6.46c-1.355-1.748-2.112-3.382-3.073-5.415c-0.787-1.657-1.875-4.24-3.953-4.473l-1.626-0.737
					c-6.709,0-11.815,2.487-12.852,9.744c-0.462,3.274,0.209,6.758,0.209,10.062c0,3.33,0.219,6.553,0.213,9.848
					c-0.021,6.978,0.288,14.036-0.644,20.739c-0.484,3.487,1.18,7.228,4.883,4.253c2.673-2.145,3.721-5.85,3.721-9.223
					c0-8.332-0.835-16.285-0.835-24.571c0-2.701-0.937-8.361,1.294-10.218c2.263-1.889,5.161,3.199,5.196,5.612
					C114.329,265.665,114.98,270.269,115.025,271.391z"/>
				<path fill="#89182C" d="M137.448,202.796c4.896,0,16.51-0.22,21.375-0.237c4.631-0.007,8.31,0.808,12.428,1.623
					c2.739,0.542,6.915,2.109,7.897,5.183c1.26,3.907-4.02,4.726-6.87,4.726c-4.49-0.004-8.123-1.264-12.302-1.894
					c-3.744-0.56-14.303-0.467-18.215-0.542c-5.152-0.088-10.447-1.044-15.775-1.044c-3.097,0-6.313-0.411-9.372-0.209
					c-1.873,0.122-3.589,0.849-5.666,1.046c-4.375,0.429-6.981,0.092-10.37,3.104c-2.534,2.251-4.109,4.489-4.306,8.004
					c-0.432,7.524-0.161,15.396,0.428,22.848c0.283,3.553,0.491,7.435,0.42,11.316c-0.08,4.428-1.443,8.851-1.678,13.406
					c-0.223,4.395-0.219,8.748-0.205,13.158c0.01,4.029-0.708,7.793-0.84,11.993c-0.08,2.697-0.108,8.231-1.552,10.42
					c-2.02,3.073-7.064,1.731-7.252-2.037c-0.415-8.375,1.277-16.113,1.257-24.479c-0.012-4.332,0.928-8.363,1.42-12.65
					c0.434-3.786,0.254-7.663,0.254-11.477c0-6.993,0-13.98,0-20.973c0,0-0.061-6.355-0.419-8.585
					c-0.365-2.308-0.237-4.76-0.21-7.344c0.073-6.661,5.909-12.981,12.366-14.039c7.169-1.163,15.224-0.223,22.6-0.866
					c0.913,0.188,2.065-2.168,3.129-3.17c1.083-1.014,2.134-2.993,3.137-3.561c3.166-1.784,7.269,0.63,7.759,4.752L137.448,202.796z
					"/>
			</g>
			<g>
				<path fill="#89182C" d="M141.579,90.871c2.819,0,5.521,0.105,8.174,0.521c2.108,0.335,4.106,1.05,6.151,1.372
					c2.879,0.449,5.916,0.249,8.84,0.524c1.577,0.149,3.028,0.415,4.607,0.415c0.94,0,1.95-0.097,2.88,0.021
					c2.029,0.258,4.14,1.002,6.152,1.525c2.056,0.528,3.649,1.245,4.875,2.965c0.808,1.131,1.879,2.937,0.129,3.873
					c-2.095,1.117-6.119,0.664-8.458,0.528c-1.197-0.07-2.063-0.521-3.25-0.63c-1.515-0.139-3.081-0.219-4.615-0.219
					c-1.832,0.01-3.546-0.223-5.352-0.634c-1.757-0.396-3.453-1.271-5.259-1.612c-2.752-0.521-5.604-1.093-8.484-1.732
					c-6.918-1.521-14.416-0.315-21.393,0.315c-1.315,0.119-2.596,0.195-3.933,0.209c-1.17,0.009-1.868,0.411-2.86,0.63
					c-0.486,0.114-1.058-0.114-1.552-0.003c-0.42,0.091-0.684,0.34-1.063,0.502c-1.027,0.415-2.155,0.616-3.199,0.908
					c-1.732,0.483-4.105,0.696-5.703,1.518c-1.605,0.826-3.271,1.695-4.988,2.465c-1.629,0.737-3.138,1.438-5.054,1.002
					c-1.823-0.406-3.39-1.246-4.969-2.155c-1.577-0.905-3.345-2.071-1.494-3.838c1.591-1.53,2.938-2.141,4.873-3.104
					c2.335-1.155,5.08-1.303,7.754-1.695c2.377-0.337,4.503-0.766,6.807-1.198c4.406-0.835,9.122-1.291,13.617-1.848
					c1.599-0.197,3.891,0.651,4.302-1.146c0.415-1.791,1.25-2.654,3.142-3.221c1.783-0.547,4.011-0.272,5.708,0.309
					c1.973,0.679,2.21,1.679,2.879,3.433h0.737V90.871z"/>
				<path fill="#89182C" d="M160.125,110.571c-0.86,1.399-2.684,2.22-4.724,2.022c-1.113,0.14-1.743,0.07-2.509,0.07
					c-1.389,0-2.692,0.175-4.071,0.39c-3.404,0.546-7.859,0.226-11.347,0.101c-7.636-0.271-14.576-0.508-22.119,0.236
					c-1.949,0.191-4.056,0.557-5.84-0.198c-0.892-0.375-1.072-1.284-1.595-2.077c-0.547-0.838-0.752-1.075-0.996-2.061
					c-0.428-1.716-0.198-3.939,0.93-5.168c1.115-1.212,2.826-1.845,4.239-2.373c1.646-0.617,3.826-0.433,5.593-0.69
					c2.112-0.314,4.053-0.727,6.188-0.939c3.916-0.397,7.733-0.63,11.951-0.63c3.827,0,7.558,0.297,11.296,0.532
					c1.932,0.119,3.954,0.062,5.805,0.512c1.831,0.445,3.674,1.389,5.318,2.101c1.242,0.53,3.513,1.435,3.979,2.82
					c0.587,1.732-0.844,3.66-1.682,4.826L160.125,110.571z M123.505,105.007c-1.093,0-2.421-0.174-3.396,0.192
					c-0.63,0.232-1.872,0.35-2.145,1.053c-0.463,1.18,0.627,1.361,1.498,1.361c1.988,0,3.97,0.034,5.953,0.129
					c1.857,0.091,3.716,0.053,5.581,0.053c1.885,0.007,3.759-0.284,5.648-0.272c3.423,0.003,6.855-0.266,10.269-0.411
					c0.989-0.048,1.972-0.152,2.959-0.202c0.69-0.031,1.088-0.167,1.712-0.328c1.11-0.28,1.203-0.817,0.246-1.486
					c-0.873-0.606-1.792-0.686-2.838-0.783c-2.827-0.248-5.687-0.149-8.527-0.018c-3.418,0.153-6.82,0.459-10.246,0.48
					c-2.058,0.004-4.1,0.271-6.155,0.271L123.505,105.007z"/>
				<path fill="#89182C" d="M165.573,123.566c-2.14,0-2.933,0.198-3.243,2.29c-0.166,1.12-0.647,1.915-1.027,2.863
					c-0.372,0.94-0.508,1.866-0.804,2.786c-0.684,2.134-3.108,3.506-5.408,3.908c-0.581,0.105-1.229-0.034-1.817,0.057
					c-1.577,0.263-2.972,0.675-4.59,0.8c-2.836,0.201-5.53,0.525-8.36,0.729c-2.519,0.18-4.803,0.407-7.339,0.205
					c-2.643-0.201-5.311-0.546-7.929-0.654c-1.009-0.041-6.435-0.345-6.138-2.287c-0.585-0.248-0.993-0.712-1.425-1.176
					c-1.359-1.441-3.299-2.684-4.406-4.493c-0.473-0.77-0.915-1.736-1.158-2.627c-0.206-0.748,0.042-1.928-0.624-2.304
					c-1.61-0.9-4.175,1.023-5.547,1.494c-1.277,0.446-2.308,0.638-3.668,0.808c-1.377,0.174-2.875,0.087-4.153,0.766
					c-2.081,1.102-3.213,4.607-3.188,6.894c0.026,2.046,1.131,3.662,1.151,5.656c0.033,3.082-0.439,9.087-4.713,8.904
					c-1.99-0.086-3.062-2.001-3.563-3.667c-0.912-3.042-1.465-6.268-1.904-9.359c-0.386-2.662-0.188-5.167,0.524-7.639
					c0.39-1.347,0.411-3.148,1.309-4.276c0.807-1.01,1.799-1.945,2.797-2.899c1.738-1.673,3.904-2.752,6.316-3.388
					c0.585-0.157,1.302-0.097,1.866-0.302c0.254-0.092,0.825-0.188,1.145-0.224c0.351-0.027,0.881-0.027,1.456,0
					c1.319,0.07,2.655,0.114,3.974,0.114c3.609-0.017,8.444,0.488,11.75-0.529c1.862-0.568,2.959-0.975,4.926-1.26
					c2.098-0.296,4.483-0.206,6.605-0.206c2.648,0,5.213,0.118,7.854,0.206c4.395,0.149,9.337-0.198,13.726,0
					c6.226,0.289,12.016-0.014,18.232,0.533c2.3,0.202,4.479,0.288,6.703,0.616c1.014,0.16,2.045,0.181,3.049,0.395
					c0.98,0.2,1.618,0.812,2.526,1.468c1.688,1.222,2.624,1.945,3.612,3.801c0.895,1.684,1.736,3.323,2.232,5.164
					c0.59,2.185,1.126,4.689,1.253,7.072c0.104,1.841,0.197,4.507-0.752,6.094c-0.804,1.333-3.24,2.54-4.563,3.279
					c-0.8,0.449-1.821,0.546-2.662,0.205c-1.268-0.507-1.665-1.514-1.969-2.745c-0.979-3.917-2.213-7.88-3.174-11.715
					c-0.425-1.7-0.467-3.61-2.282-4.606c-1.246-0.679-3.037-0.752-4.717-0.655L165.573,123.566z M150.279,122.303
					c0.749,0,2.054,0.21,1.884-0.94c-0.144-0.947-1.469-0.738-2.276-0.738c-2.325,0.005-4.646,0-6.97,0
					c-6.516,0-12.888,0.844-19.364,0.844c-0.585,0-2.287-0.396-2.723-0.115c-1.067,0.7,0.06,1.479,0.766,1.573
					c2.735,0.384,5.704-0.114,8.463,0c5.555,0.237,11.047,0.279,16.559,0.003c0.571-0.03,1.205-0.056,1.668-0.209L150.279,122.303z
					 M146.816,129.953c0.94-0.311,1.737-0.551,2.62-0.735c0.512-0.107,2.142,0.154,2.417-0.309c0.617-1.059-1.501-0.84-2.023-0.84
					c-2.063,0-4.109-0.191-6.176-0.209c-4.742-0.049-9.48,0.101-14.225,0.101c-1.936,0-3.466-0.316-5.341-0.316
					c-0.818,0-1.692-0.205-2.081,0.638c-0.416,0.915,0.219,1.565,0.923,1.775c2.282,0.674,5.53,0.117,7.86,0.208
					c2.87,0.126,5.744,0.31,8.568,0.31c2.167,0,4.156-0.315,6.311-0.315L146.816,129.953z"/>
				<path fill="#89182C" d="M153.106,161.696c1.919,0,3.669,0.185,5.028,1.618c1.757,1.858,2.352,4.083,3.563,6.251
					c1.238,2.199,2.662,4.454,3.702,6.661c1.307,2.763,1.978,5.756,3.003,8.603c0.861,2.4,0.296,5.591,1.623,7.758
					c1.402,2.295,5.253,1.85,7.071,0.223c2.535-2.273,2.062-5.639,1.894-8.878c-0.136-2.527-0.533-5.287-1.918-7.335
					c-1.36-2.002-1.719-4.633-2.777-7.021c-0.477-1.079-1.312-2.276-2.001-3.365c-1.121-1.748-2.186-3.032-3.135-4.813
					c-1.148-2.155-1.932-4.462-3.589-6.42c-1.494-1.768-3.476-2.815-5.651-3.52c-1.928-0.625-3.703-0.761-5.321,0.419
					c-1.649,1.211-3.563,1.959-5.314,3.069c-1.632,1.03-3.341,1.595-4.661-0.01c-1.168-1.407-2.148-3.086-2.522-4.953
					c-0.14-0.716-0.198-1.439-0.411-2.115l-0.213-1.574c3.978,0,7.959,0.104,11.955,0.104c4.547,0,9.294,0.366,13.801-0.101
					c1.783-0.183,4.645-0.612,4.528-2.833c-0.106-1.875-0.904-3.515-2.391-4.664c-1.402-1.075-3.286-1.207-5.074-1.207
					c-3.07,0.004-5.288,0.21-8.355,0.21c-3.501,0-6.89,0.314-10.376,0.314c-4.224,0-9.337,0.429-13.625,0.425
					c-6.737-0.018-13.455,0.31-20.2,0.31c-2.256,0-4.489,0.105-6.744,0.105c-1.128,0-1.862-0.066-2.802,0.498
					c-1.198,0.707-4.507,3.077-4.17,4.712c0.205,1.006,2.517,1.601,3.432,1.705c2.058,0.243,3.78,0.209,5.849,0.209
					c3.655,0,7.301-0.104,10.94-0.104c1.597,0,3.883-0.546,5.43-0.105c2.273,0.652-2.062,1.194-2.705,1.465
					c-1.492,0.633-3.449,0.988-4.844,1.574l-1.574,0.63c-2.509,0.442-4.799,1.263-7.443,1.577c-2.799,0.337-5.503,1.399-8.252,2.168
					c-1.238,0.349-1.915,0.922-2.876,1.674c-0.751,0.591-1.744,0.97-2.509,1.556c-1.302,0.988-3.352,3.31-2.302,5.18
					c0.839,1.499,4.594,1.732,6.224,1.673c3.072-0.101,6.002-1.37,8.969-2.102c2.919-0.721,5.692-2.172,8.537-2.934
					c1.329-0.358,2.242-1.071,3.511-1.67c1.298-0.619,2.639-0.995,3.891-1.653c1.068-0.56,2.232-0.365,3.341-0.751
					c0.606-0.215,1.751-0.992,2.536-0.508c1.211,0.742-0.669,1.416-1.304,1.636c-1.284,0.453-2.042,0.97-3.094,1.616
					c-1.823,1.124-4.197,1.771-6.258,2.443c-3.125,1.027-6.121,2.331-9.02,4.036c-3.003,1.765-6.473,2.917-9.789,4.022
					c-1.426,0.478-2.876,0.86-4.271,1.417c-1.409,0.568-2.418,1.525-3.567,2.377c-1.84,1.372-2.981,2.479-2.823,4.974
					c0.179,2.868,2.155,4.368,4.997,4.385c3.14,0.021,6.379-2.064,8.729-3.873c2.85-2.203,5.795-2.912,8.589-4.822
					c1.396-0.954,3.007-1.43,4.507-2.203c1.823-0.944,3.344-1.645,5.132-2.627c1.946-1.058,3.955-2.125,5.99-3.028
					c1.573-0.703,3.161-1.135,4.728-1.727c1.197-0.449,2.135-1.036,3.532-0.894c1.611,0.164,1.718,1.188,0.521,2.071
					c-0.988,0.734-2.474,1.236-3.633,1.834c-1.155,0.585-2.315,1.242-3.383,1.858l-0.835,0.419c-1.67,1.426-3.507,2.478-5.53,3.352
					c-2.241,0.968-4.404,2.422-6.421,3.881c-0.884,0.633-1.682,1.371-2.562,2.015c-0.901,0.646-1.886,1.089-2.798,1.744
					c-1.203,0.877-2.718,1.635-4.062,2.413c-1.259,0.734-1.906,1.298-2.832,2.307c-1.343,1.473-4.367,3.592-4.192,5.865
					c0.164,2.171,2.307,3.256,4.291,3.458c2.409,0.253,5.398-1.085,7.208-2.67c1.271-1.124,2.453-2.155,3.797-3.177
					c1.57-1.194,2.854-2.631,4.399-3.895c3.833-3.143,8.024-5.639,12.453-7.89c1.958-0.996,5.118-4.1,7.546-2.464
					c0.12,0.844-0.254,1.757-0.539,2.502c-0.366,0.929-0.571,1.984-0.913,3.016c-0.63,1.866-1.26,3.825-2.067,5.684
					c-0.797,1.827-2.279,3.562-3.23,5.253c-0.667,1.18-1.604,3.633-0.36,4.883c1.155,1.155,3.396,1.12,5.024,1.071
					c1.052-0.035,1.962-0.297,2.91-0.766c1.017-0.49,1.398-1.29,2.07-2.154c1.604-2.068,2.709-5.144,3.828-7.614
					c1.468-3.248,2.979-6.688,3.849-10.132c0.624-2.478,0.887-5.355,0.756-7.938c-0.047-0.918-0.411-2.357,0.158-3.066
					c0.48-0.595,1.477-1.17,2.25-1.228L153.106,161.696z"/>
			</g>
			<path fill="#89182C" d="M201.562,185.844c-2.746,0-4.511-0.65-5.412-2.005c-0.494-0.738-0.927-2.011-0.193-3.866l0.073-0.157
				c1.207-2.394,3.925-3.082,8.084-3.082l0.507,0.026c0.192,0.035,0.546,0.083,1.062,0.153c3.18,0.442,6.271,0.572,8.317,0.665
				c2.049,0.092,6.365-0.494,9.181-0.472c1.473,0.013,4.883,0.564,7.047,0.751c2.155,0.188,4.414-0.568,4.414-0.568l6.549,0.289
				c-0.019-1.014,0.268-2.872,0.227-4.322c-0.049-1.57,0.064-3.515-0.097-5.601c-0.057-0.726,0.118-3.147,0.097-4.038l-0.616-0.105
				l-8.074,0.48l-10.272-0.48c-4.376,0.031-7.348,0.07-8.822,0.105c-0.525,0.021-1.052,0.035-1.547,0.035
				c-3.899,0-6.054-0.727-7.001-2.342c-0.444-0.757-0.782-2.008,0.109-3.715c0.963-2.007,3.162-3.024,6.549-3.024
				c0.62,0,1.298,0.035,2.025,0.102c2.268,0.28,5.28,0.411,8.995,0.411l8.965,0.521l8.966-0.521
				c-0.031-0.782-0.064-1.653-0.095-2.587c-0.037-1.066-0.072-2.558-0.107-3.313c-4.477,0.007-8.755-0.359-13.018-0.302
				c-4.173,0.047-9.104,0.514-13.021,0.612c-0.362,0.018-0.749,0.021-1.109,0.021c-3.835,0-6.142-0.796-7.252-2.501
				c-0.554-0.856-1.036-1.736-0.13-3.876l0.084-0.175c0.752-1.386,2.22-2.308,4.491-2.826c1.774-0.39,3.549-0.241,5.286,0.418
				c0.525,0.119,3.108,0.386,15.501,0.428c6.53,0.018,14.525,0.407,20.949,0.355c5.729-0.057,9.903-0.55,15.473-0.669
				c1.604-0.07,3.658-0.121,6.229-0.153c1.298-0.041,3.665,0.32,5.215,0.32l6.382-0.874c1.329,0.013,5.009-0.132,4.824,3.466
				l0.047,0.205l0.26,1.079c0,2.805-3.87,2.536-5.228,2.982l-0.25,0.062c-2.62,0.48-7.131,0.883-13.772,1.232
				c-2.926,0.14-5.818,0.248-8.61,0.319c-2.852,0.035-5.994,0.035-8.519,0h-0.592c-0.013,0.463-0.034,0.989-0.057,1.583
				c-0.077,1.337-0.134,3.086-0.166,4.096c3.804-0.004,9.544,0.209,14.661,0.185c3.373-0.014,6.275-0.262,10.198-0.289l4.922,0.198
				c0.323-0.014,2.286-0.205,2.624-0.205c4.278,0,6.123,0.577,6.81,2.12c0.18,0.397,0.459,1.364-0.23,2.491
				c-1.037,3.14-3.852,3.017-7.346,3.489c-2.232,0.249-5.619,0.07-11.433,0.18c-2.86,0.056-6.728,0.445-10.496,0.473l-3.683-0.473
				l-6.115,0.473c-0.004,0.302-0.013,1.581-0.027,1.879c-0.041,1.17-0.083,1.35-0.122,3.116l0.214,3.549l-0.281,3.693l0.375,1.972
				l10.182,0.284l13.517-0.755l11.798,0.379c0.351-0.01,0.713-0.01,1.071-0.01c4.464,0,6.525,0.578,7.36,2.064
				c0.431,0.766,0.444,0.971,0.043,1.81c-0.628,1.98-2.517,3.537-7.344,4.18c-1.497,0.226-6.323-0.568-12.647-0.498
				c-2.593,0.027-5.107,0.563-8.546,0.563c-5.875-0.053-10.939,0.205-17.621,0.184c-4.117-0.013-9.625-0.31-14.012-0.31
				c-3.206,0-6.508-0.323-9.897-0.313c-5.669,0.008-11.565,0.354-17.645,0.384c-4.211,0.035-6.857,0.057-7.949,0.057h-0.325v-0.009
				H201.562z M251.335,139.011c-1.955,0-3.152,0.341-5.334,0.323c-9.746-0.07-16.646-0.215-20.491-0.428l-0.253-0.03
				c-7.348-1.496-14.395-5.648-20.94-12.345c-2.3-2.548-3.776-5.679-4.423-9.358c-0.698-3.641,0.993-7.597,1.28-11.498
				c0.274-3.668,2.139-7.117,5.076-9.8c0.379-0.354,0.657-0.616,0.817-0.786c1.046-1.321,2.408-2.029,3.957-2.029
				c1.198,0,1.254-0.126,2.635,0.694l1.253,0.747c1.451,1.068,1.225,1.681,1.876,3.049c0.57,1.196-0.479,4.108-1.752,5.835
				c-1.573,1.215,4.598,0.274,7.935,0.224c2.792-0.046,8.082,0.007,11.884-0.194c2.585-0.122,6.125,0.567,6.102-0.546
				c-0.287-2.802-0.537-5.868-0.744-9.149c-0.12-2.662,0.32-5.948,1.125-7.295c1.46-2.422,3.987-1.678,5.713-1.813l1.132,0.026
				l0.24,0.284c2.37,0.043,2.408,0.678,3.8,2.491l0.07,0.098c1.311,1.98,1.595,4.231,0.807,6.526
				c-0.188,0.604-0.533,2.614-0.721,8.8c-0.083,0.303,0.248,0.498,0.817,0.494c2.88-0.021,6.967-0.021,9.219-0.191
				c1.788-0.122,2.429-0.414,4.319-0.463c2.141-0.056,6.392,0.184,8.112,0.213c-0.811-1.482-1.675-2.818-2.598-3.987l-0.103-0.144
				c-0.835-1.298-0.61-2.373-0.405-2.898c0.61-1.577,1.598-1.924,2.162-2.043l0.18-0.021c1.727-0.17,3.715,0.272,5.892,1.312
				l0.079,0.042c2.745,1.5,5.827,2.414,6.409,6.3c0.449,3.003,1.854,6.482,2.362,9.713l0.008,0.095
				c0.838,7.842-0.533,13.362-4.169,17.992c-4.511,5.332-10.831,8.366-18.822,9.066c-1.91,0.111-4.604,0.184-8.039,0.214
				C256.065,138.552,253.298,139.011,251.335,139.011z M215.99,124.786c-1.026,0.458,2.002,2.662,6.434,4.082
				c2.381,0.77,7.162,2.145,9.406,2.241c3.116,0.101,5.726-0.222,11.15-0.222c2.379,0,4.345,0.407,7.567,0.469
				c2.137,0.038,4.301-0.306,6.845-0.376c2.352-0.066,5.076,0.159,7.168,0.126h0.226c4.294,0,8.376-2.395,9.873-4.441
				c0.571-0.765,1.09-1.517,1.559-2.261c-3.427-0.03-7.624-0.606-11.732,0.049c-2.338,0.375-8.842,0.223-13.244,0.223
				c-3.661,0-9.262-0.351-12.961-0.223c-4.676,0.166-7.557,0.817-13.419,0.848C223.046,125.311,217.87,124.777,215.99,124.786z
				 M211.404,111.783c0.011,0.546,0.061,1.107,0.13,1.688c0.122,0.957,0.33,1.953,0.622,2.999c0.23,0.288,0.711,0.478,1.131,0.478
				c4.414-0.008,10.364-0.245,14.543-0.28c3.466-0.034,7.006-0.454,10.089-0.566c2.771-0.102,7.071,0.191,10.082,0.191
				c2.021,0,6.032,0.188,7.928,0.188c8.071,0.004,12.422-0.428,20.666-0.283c0.984-0.563,1.497-1.351,1.497-1.788
				c0-0.97-0.086-1.984-0.257-3.042c-0.464-0.008-2.556-0.324-3.05-0.337c-2.958-0.035-5.543,0.267-9.599,0.267
				c-1.234,0-4.316-0.267-5.652-0.267c-5.543,0.018-9.645,0.62-16.573,0.751C234.686,111.936,222.625,111.624,211.404,111.783z"/>
		</g>
	</g>
</g>
</svg>
